<mxfile host="app.diagrams.net" modified="2023-05-28T07:44:27.245Z" agent="Mozilla/5.0 (Windows NT 10.0; Win64; x64) AppleWebKit/537.36 (KHTML, like Gecko) Chrome/113.0.0.0 Safari/537.36" version="21.1.1" etag="HoSP371gXxtr_H0uPqdK" type="github">
  <diagram id="C5RBs43oDa-KdzZeNtuy" name="Page-1">
    <mxGraphModel dx="4502" dy="4185" grid="1" gridSize="10" guides="1" tooltips="1" connect="1" arrows="1" fold="1" page="1" pageScale="1" pageWidth="827" pageHeight="1169" math="0" shadow="0">
      <root>
        <mxCell id="WIyWlLk6GJQsqaUBKTNV-0" />
        <mxCell id="WIyWlLk6GJQsqaUBKTNV-1" parent="WIyWlLk6GJQsqaUBKTNV-0" />
        <mxCell id="EyJI59kNtBmuk4PCt2ao-12" value="1" style="endArrow=open;html=1;endSize=12;startArrow=diamondThin;startSize=14;startFill=0;edgeStyle=orthogonalEdgeStyle;align=left;verticalAlign=bottom;rounded=0;exitX=1;exitY=0.5;exitDx=0;exitDy=0;entryX=0.5;entryY=0;entryDx=0;entryDy=0;" parent="WIyWlLk6GJQsqaUBKTNV-1" source="zkfFHV4jXpPFQw0GAbJ--1" target="EyJI59kNtBmuk4PCt2ao-17" edge="1">
          <mxGeometry x="-1" y="3" relative="1" as="geometry">
            <mxPoint x="330" y="320" as="sourcePoint" />
            <mxPoint x="590" y="190" as="targetPoint" />
            <Array as="points">
              <mxPoint x="800" y="-15" />
              <mxPoint x="800" y="104" />
              <mxPoint x="680" y="104" />
            </Array>
          </mxGeometry>
        </mxCell>
        <mxCell id="EyJI59kNtBmuk4PCt2ao-13" value="Pages" style="swimlane;fontStyle=1;align=center;verticalAlign=top;childLayout=stackLayout;horizontal=1;startSize=26;horizontalStack=0;resizeParent=1;resizeParentMax=0;resizeLast=0;collapsible=1;marginBottom=0;whiteSpace=wrap;html=1;" parent="WIyWlLk6GJQsqaUBKTNV-1" vertex="1">
          <mxGeometry x="570" y="-80" width="180" height="112" as="geometry" />
        </mxCell>
        <mxCell id="EyJI59kNtBmuk4PCt2ao-4" value="- pages: { pagename: Page }" style="text;strokeColor=none;fillColor=none;align=left;verticalAlign=top;spacingLeft=4;spacingRight=4;overflow=hidden;rotatable=0;points=[[0,0.5],[1,0.5]];portConstraint=eastwest;whiteSpace=wrap;html=1;" parent="EyJI59kNtBmuk4PCt2ao-13" vertex="1">
          <mxGeometry y="26" width="180" height="26" as="geometry" />
        </mxCell>
        <mxCell id="zkfFHV4jXpPFQw0GAbJ--1" value="+currentPage: Page&#xa;" style="text;align=left;verticalAlign=top;spacingLeft=4;spacingRight=4;overflow=hidden;rotatable=0;points=[[0,0.5],[1,0.5]];portConstraint=eastwest;" parent="EyJI59kNtBmuk4PCt2ao-13" vertex="1">
          <mxGeometry y="52" width="180" height="26" as="geometry" />
        </mxCell>
        <mxCell id="EyJI59kNtBmuk4PCt2ao-15" value="" style="line;strokeWidth=1;fillColor=none;align=left;verticalAlign=middle;spacingTop=-1;spacingLeft=3;spacingRight=3;rotatable=0;labelPosition=right;points=[];portConstraint=eastwest;strokeColor=inherit;" parent="EyJI59kNtBmuk4PCt2ao-13" vertex="1">
          <mxGeometry y="78" width="180" height="8" as="geometry" />
        </mxCell>
        <mxCell id="EyJI59kNtBmuk4PCt2ao-16" value="+ method(type): type" style="text;strokeColor=none;fillColor=none;align=left;verticalAlign=top;spacingLeft=4;spacingRight=4;overflow=hidden;rotatable=0;points=[[0,0.5],[1,0.5]];portConstraint=eastwest;whiteSpace=wrap;html=1;" parent="EyJI59kNtBmuk4PCt2ao-13" vertex="1">
          <mxGeometry y="86" width="180" height="26" as="geometry" />
        </mxCell>
        <mxCell id="EyJI59kNtBmuk4PCt2ao-17" value="Page" style="swimlane;fontStyle=1;align=center;verticalAlign=top;childLayout=stackLayout;horizontal=1;startSize=26;horizontalStack=0;resizeParent=1;resizeParentMax=0;resizeLast=0;collapsible=1;marginBottom=0;whiteSpace=wrap;html=1;" parent="WIyWlLk6GJQsqaUBKTNV-1" vertex="1">
          <mxGeometry x="600" y="210" width="160" height="86" as="geometry" />
        </mxCell>
        <mxCell id="EyJI59kNtBmuk4PCt2ao-18" value="- listeners: Listener[]" style="text;strokeColor=none;fillColor=none;align=left;verticalAlign=top;spacingLeft=4;spacingRight=4;overflow=hidden;rotatable=0;points=[[0,0.5],[1,0.5]];portConstraint=eastwest;whiteSpace=wrap;html=1;" parent="EyJI59kNtBmuk4PCt2ao-17" vertex="1">
          <mxGeometry y="26" width="160" height="26" as="geometry" />
        </mxCell>
        <mxCell id="EyJI59kNtBmuk4PCt2ao-19" value="" style="line;strokeWidth=1;fillColor=none;align=left;verticalAlign=middle;spacingTop=-1;spacingLeft=3;spacingRight=3;rotatable=0;labelPosition=right;points=[];portConstraint=eastwest;strokeColor=inherit;" parent="EyJI59kNtBmuk4PCt2ao-17" vertex="1">
          <mxGeometry y="52" width="160" height="8" as="geometry" />
        </mxCell>
        <mxCell id="EyJI59kNtBmuk4PCt2ao-20" value="+ method(type): type" style="text;strokeColor=none;fillColor=none;align=left;verticalAlign=top;spacingLeft=4;spacingRight=4;overflow=hidden;rotatable=0;points=[[0,0.5],[1,0.5]];portConstraint=eastwest;whiteSpace=wrap;html=1;" parent="EyJI59kNtBmuk4PCt2ao-17" vertex="1">
          <mxGeometry y="60" width="160" height="26" as="geometry" />
        </mxCell>
        <mxCell id="EyJI59kNtBmuk4PCt2ao-21" value="&lt;font style=&quot;font-size: 23px;&quot;&gt;Client side&lt;/font&gt;" style="text;align=center;fontStyle=1;verticalAlign=middle;spacingLeft=3;spacingRight=3;strokeColor=none;rotatable=0;points=[[0,0.5],[1,0.5]];portConstraint=eastwest;html=1;" parent="WIyWlLk6GJQsqaUBKTNV-1" vertex="1">
          <mxGeometry x="350" y="4" width="210" height="86" as="geometry" />
        </mxCell>
        <mxCell id="EyJI59kNtBmuk4PCt2ao-22" value="Server-Side" style="text;align=center;fontStyle=1;verticalAlign=middle;spacingLeft=3;spacingRight=3;strokeColor=none;rotatable=0;points=[[0,0.5],[1,0.5]];portConstraint=eastwest;html=1;fontSize=24;" parent="WIyWlLk6GJQsqaUBKTNV-1" vertex="1">
          <mxGeometry x="-550" y="4" width="170" height="106" as="geometry" />
        </mxCell>
        <mxCell id="EyJI59kNtBmuk4PCt2ao-25" value="" style="endArrow=none;html=1;rounded=0;fontSize=17;" parent="WIyWlLk6GJQsqaUBKTNV-1" edge="1">
          <mxGeometry width="50" height="50" relative="1" as="geometry">
            <mxPoint x="-110" y="1300" as="sourcePoint" />
            <mxPoint x="-100" y="-650" as="targetPoint" />
          </mxGeometry>
        </mxCell>
        <mxCell id="EyJI59kNtBmuk4PCt2ao-26" value="SubSocket" style="swimlane;fontStyle=1;align=center;verticalAlign=top;childLayout=stackLayout;horizontal=1;startSize=26;horizontalStack=0;resizeParent=1;resizeParentMax=0;resizeLast=0;collapsible=1;marginBottom=0;whiteSpace=wrap;html=1;" parent="WIyWlLk6GJQsqaUBKTNV-1" vertex="1">
          <mxGeometry x="-790" y="28" width="220" height="268" as="geometry" />
        </mxCell>
        <mxCell id="EyJI59kNtBmuk4PCt2ao-27" value="- data: Any" style="text;strokeColor=none;fillColor=none;align=left;verticalAlign=top;spacingLeft=4;spacingRight=4;overflow=hidden;rotatable=0;points=[[0,0.5],[1,0.5]];portConstraint=eastwest;whiteSpace=wrap;html=1;" parent="EyJI59kNtBmuk4PCt2ao-26" vertex="1">
          <mxGeometry y="26" width="220" height="26" as="geometry" />
        </mxCell>
        <mxCell id="EyJI59kNtBmuk4PCt2ao-31" value="- listeners: Listener[]" style="text;strokeColor=none;fillColor=none;align=left;verticalAlign=top;spacingLeft=4;spacingRight=4;overflow=hidden;rotatable=0;points=[[0,0.5],[1,0.5]];portConstraint=eastwest;whiteSpace=wrap;html=1;" parent="EyJI59kNtBmuk4PCt2ao-26" vertex="1">
          <mxGeometry y="52" width="220" height="26" as="geometry" />
        </mxCell>
        <mxCell id="EyJI59kNtBmuk4PCt2ao-33" value="- name: string" style="text;strokeColor=none;fillColor=none;align=left;verticalAlign=top;spacingLeft=4;spacingRight=4;overflow=hidden;rotatable=0;points=[[0,0.5],[1,0.5]];portConstraint=eastwest;whiteSpace=wrap;html=1;" parent="EyJI59kNtBmuk4PCt2ao-26" vertex="1">
          <mxGeometry y="78" width="220" height="26" as="geometry" />
        </mxCell>
        <mxCell id="EyJI59kNtBmuk4PCt2ao-77" value="-deleteDataTimeout: Timeout" style="text;strokeColor=none;fillColor=none;align=left;verticalAlign=top;spacingLeft=4;spacingRight=4;overflow=hidden;rotatable=0;points=[[0,0.5],[1,0.5]];portConstraint=eastwest;whiteSpace=wrap;html=1;" parent="EyJI59kNtBmuk4PCt2ao-26" vertex="1">
          <mxGeometry y="104" width="220" height="26" as="geometry" />
        </mxCell>
        <mxCell id="EyJI59kNtBmuk4PCt2ao-36" value="-init: (req, res, next): Any" style="text;strokeColor=none;fillColor=none;align=left;verticalAlign=top;spacingLeft=4;spacingRight=4;overflow=hidden;rotatable=0;points=[[0,0.5],[1,0.5]];portConstraint=eastwest;whiteSpace=wrap;html=1;" parent="EyJI59kNtBmuk4PCt2ao-26" vertex="1">
          <mxGeometry y="130" width="220" height="26" as="geometry" />
        </mxCell>
        <mxCell id="EyJI59kNtBmuk4PCt2ao-28" value="" style="line;strokeWidth=1;fillColor=none;align=left;verticalAlign=middle;spacingTop=-1;spacingLeft=3;spacingRight=3;rotatable=0;labelPosition=right;points=[];portConstraint=eastwest;strokeColor=inherit;" parent="EyJI59kNtBmuk4PCt2ao-26" vertex="1">
          <mxGeometry y="156" width="220" height="8" as="geometry" />
        </mxCell>
        <mxCell id="EyJI59kNtBmuk4PCt2ao-320" value="+ onUpdate(event, data, ...criteria)" style="text;strokeColor=none;fillColor=none;align=left;verticalAlign=top;spacingLeft=4;spacingRight=4;overflow=hidden;rotatable=0;points=[[0,0.5],[1,0.5]];portConstraint=eastwest;whiteSpace=wrap;html=1;" parent="EyJI59kNtBmuk4PCt2ao-26" vertex="1">
          <mxGeometry y="164" width="220" height="26" as="geometry" />
        </mxCell>
        <mxCell id="EyJI59kNtBmuk4PCt2ao-30" value="+ setSocket(socket)" style="text;strokeColor=none;fillColor=none;align=left;verticalAlign=top;spacingLeft=4;spacingRight=4;overflow=hidden;rotatable=0;points=[[0,0.5],[1,0.5]];portConstraint=eastwest;whiteSpace=wrap;html=1;" parent="EyJI59kNtBmuk4PCt2ao-26" vertex="1">
          <mxGeometry y="190" width="220" height="26" as="geometry" />
        </mxCell>
        <mxCell id="pfRynWjS_9kP5OW-bGrS-0" value="+ getCachedData(criteria, data)" style="text;strokeColor=none;fillColor=none;align=left;verticalAlign=top;spacingLeft=4;spacingRight=4;overflow=hidden;rotatable=0;points=[[0,0.5],[1,0.5]];portConstraint=eastwest;whiteSpace=wrap;html=1;" parent="EyJI59kNtBmuk4PCt2ao-26" vertex="1">
          <mxGeometry y="216" width="220" height="26" as="geometry" />
        </mxCell>
        <mxCell id="EyJI59kNtBmuk4PCt2ao-29" value="+init(req, res, next): Any&amp;nbsp;" style="text;strokeColor=none;fillColor=none;align=left;verticalAlign=top;spacingLeft=4;spacingRight=4;overflow=hidden;rotatable=0;points=[[0,0.5],[1,0.5]];portConstraint=eastwest;whiteSpace=wrap;html=1;" parent="EyJI59kNtBmuk4PCt2ao-26" vertex="1">
          <mxGeometry y="242" width="220" height="26" as="geometry" />
        </mxCell>
        <mxCell id="EyJI59kNtBmuk4PCt2ao-42" value="ClientListener" style="swimlane;fontStyle=1;align=center;verticalAlign=top;childLayout=stackLayout;horizontal=1;startSize=26;horizontalStack=0;resizeParent=1;resizeParentMax=0;resizeLast=0;collapsible=1;marginBottom=0;whiteSpace=wrap;html=1;" parent="WIyWlLk6GJQsqaUBKTNV-1" vertex="1">
          <mxGeometry x="-375" y="190" width="200" height="164" as="geometry" />
        </mxCell>
        <mxCell id="EyJI59kNtBmuk4PCt2ao-181" value="- criteria: Object" style="text;strokeColor=none;fillColor=none;align=left;verticalAlign=top;spacingLeft=4;spacingRight=4;overflow=hidden;rotatable=0;points=[[0,0.5],[1,0.5]];portConstraint=eastwest;whiteSpace=wrap;html=1;" parent="EyJI59kNtBmuk4PCt2ao-42" vertex="1">
          <mxGeometry y="26" width="200" height="26" as="geometry" />
        </mxCell>
        <mxCell id="EyJI59kNtBmuk4PCt2ao-182" value="- callback: function" style="text;strokeColor=none;fillColor=none;align=left;verticalAlign=top;spacingLeft=4;spacingRight=4;overflow=hidden;rotatable=0;points=[[0,0.5],[1,0.5]];portConstraint=eastwest;whiteSpace=wrap;html=1;" parent="EyJI59kNtBmuk4PCt2ao-42" vertex="1">
          <mxGeometry y="52" width="200" height="26" as="geometry" />
        </mxCell>
        <mxCell id="EyJI59kNtBmuk4PCt2ao-43" value="-event: string" style="text;strokeColor=none;fillColor=none;align=left;verticalAlign=top;spacingLeft=4;spacingRight=4;overflow=hidden;rotatable=0;points=[[0,0.5],[1,0.5]];portConstraint=eastwest;whiteSpace=wrap;html=1;" parent="EyJI59kNtBmuk4PCt2ao-42" vertex="1">
          <mxGeometry y="78" width="200" height="26" as="geometry" />
        </mxCell>
        <mxCell id="EyJI59kNtBmuk4PCt2ao-44" value="" style="line;strokeWidth=1;fillColor=none;align=left;verticalAlign=middle;spacingTop=-1;spacingLeft=3;spacingRight=3;rotatable=0;labelPosition=right;points=[];portConstraint=eastwest;strokeColor=inherit;" parent="EyJI59kNtBmuk4PCt2ao-42" vertex="1">
          <mxGeometry y="104" width="200" height="8" as="geometry" />
        </mxCell>
        <mxCell id="EyJI59kNtBmuk4PCt2ao-45" value="+update(data)" style="text;strokeColor=none;fillColor=none;align=left;verticalAlign=top;spacingLeft=4;spacingRight=4;overflow=hidden;rotatable=0;points=[[0,0.5],[1,0.5]];portConstraint=eastwest;whiteSpace=wrap;html=1;" parent="EyJI59kNtBmuk4PCt2ao-42" vertex="1">
          <mxGeometry y="112" width="200" height="26" as="geometry" />
        </mxCell>
        <mxCell id="EyJI59kNtBmuk4PCt2ao-323" style="edgeStyle=orthogonalEdgeStyle;rounded=0;orthogonalLoop=1;jettySize=auto;html=1;entryX=0;entryY=0.5;entryDx=0;entryDy=0;" parent="EyJI59kNtBmuk4PCt2ao-42" source="EyJI59kNtBmuk4PCt2ao-108" target="EyJI59kNtBmuk4PCt2ao-45" edge="1">
          <mxGeometry relative="1" as="geometry" />
        </mxCell>
        <mxCell id="EyJI59kNtBmuk4PCt2ao-108" value="+onUpdate(data, ...criteria)" style="text;strokeColor=none;fillColor=none;align=left;verticalAlign=top;spacingLeft=4;spacingRight=4;overflow=hidden;rotatable=0;points=[[0,0.5],[1,0.5]];portConstraint=eastwest;whiteSpace=wrap;html=1;" parent="EyJI59kNtBmuk4PCt2ao-42" vertex="1">
          <mxGeometry y="138" width="200" height="26" as="geometry" />
        </mxCell>
        <mxCell id="EyJI59kNtBmuk4PCt2ao-48" value="1" style="endArrow=open;html=1;endSize=12;startArrow=diamondThin;startSize=14;startFill=1;edgeStyle=orthogonalEdgeStyle;align=left;verticalAlign=bottom;rounded=0;exitX=1.005;exitY=0.269;exitDx=0;exitDy=0;exitPerimeter=0;entryX=0.5;entryY=0;entryDx=0;entryDy=0;" parent="WIyWlLk6GJQsqaUBKTNV-1" source="EyJI59kNtBmuk4PCt2ao-31" target="EyJI59kNtBmuk4PCt2ao-42" edge="1">
          <mxGeometry x="-1" y="3" relative="1" as="geometry">
            <mxPoint x="-470" y="260" as="sourcePoint" />
            <mxPoint x="-310" y="260" as="targetPoint" />
          </mxGeometry>
        </mxCell>
        <mxCell id="EyJI59kNtBmuk4PCt2ao-65" value="Change" style="html=1;whiteSpace=wrap;" parent="WIyWlLk6GJQsqaUBKTNV-1" vertex="1">
          <mxGeometry x="-350" y="-80" width="110" height="50" as="geometry" />
        </mxCell>
        <mxCell id="EyJI59kNtBmuk4PCt2ao-71" value="Delete" style="html=1;whiteSpace=wrap;" parent="WIyWlLk6GJQsqaUBKTNV-1" vertex="1">
          <mxGeometry x="-220" y="-80" width="110" height="50" as="geometry" />
        </mxCell>
        <mxCell id="EyJI59kNtBmuk4PCt2ao-72" value="New" style="html=1;whiteSpace=wrap;" parent="WIyWlLk6GJQsqaUBKTNV-1" vertex="1">
          <mxGeometry x="-480" y="-80" width="110" height="50" as="geometry" />
        </mxCell>
        <mxCell id="EyJI59kNtBmuk4PCt2ao-94" value="ServerListener" style="swimlane;fontStyle=1;align=center;verticalAlign=top;childLayout=stackLayout;horizontal=1;startSize=26;horizontalStack=0;resizeParent=1;resizeParentMax=0;resizeLast=0;collapsible=1;marginBottom=0;whiteSpace=wrap;html=1;" parent="WIyWlLk6GJQsqaUBKTNV-1" vertex="1">
          <mxGeometry x="-30" y="190" width="230" height="190" as="geometry" />
        </mxCell>
        <mxCell id="EyJI59kNtBmuk4PCt2ao-95" value="- event: string" style="text;strokeColor=none;fillColor=none;align=left;verticalAlign=top;spacingLeft=4;spacingRight=4;overflow=hidden;rotatable=0;points=[[0,0.5],[1,0.5]];portConstraint=eastwest;whiteSpace=wrap;html=1;" parent="EyJI59kNtBmuk4PCt2ao-94" vertex="1">
          <mxGeometry y="26" width="230" height="26" as="geometry" />
        </mxCell>
        <mxCell id="EyJI59kNtBmuk4PCt2ao-299" value="+ ListenerClass: Class" style="text;strokeColor=none;fillColor=none;align=left;verticalAlign=top;spacingLeft=4;spacingRight=4;overflow=hidden;rotatable=0;points=[[0,0.5],[1,0.5]];portConstraint=eastwest;whiteSpace=wrap;html=1;" parent="EyJI59kNtBmuk4PCt2ao-94" vertex="1">
          <mxGeometry y="52" width="230" height="26" as="geometry" />
        </mxCell>
        <mxCell id="EyJI59kNtBmuk4PCt2ao-324" value="-listeners: [this.ListenerClass]" style="text;strokeColor=none;fillColor=none;align=left;verticalAlign=top;spacingLeft=4;spacingRight=4;overflow=hidden;rotatable=0;points=[[0,0.5],[1,0.5]];portConstraint=eastwest;whiteSpace=wrap;html=1;" parent="EyJI59kNtBmuk4PCt2ao-94" vertex="1">
          <mxGeometry y="78" width="230" height="26" as="geometry" />
        </mxCell>
        <mxCell id="EyJI59kNtBmuk4PCt2ao-96" value="" style="line;strokeWidth=1;fillColor=none;align=left;verticalAlign=middle;spacingTop=-1;spacingLeft=3;spacingRight=3;rotatable=0;labelPosition=right;points=[];portConstraint=eastwest;strokeColor=inherit;" parent="EyJI59kNtBmuk4PCt2ao-94" vertex="1">
          <mxGeometry y="104" width="230" height="8" as="geometry" />
        </mxCell>
        <mxCell id="EyJI59kNtBmuk4PCt2ao-325" value="+on(callback, criteria): this.ListenerClass" style="text;strokeColor=none;fillColor=none;align=left;verticalAlign=top;spacingLeft=4;spacingRight=4;overflow=hidden;rotatable=0;points=[[0,0.5],[1,0.5]];portConstraint=eastwest;whiteSpace=wrap;html=1;" parent="EyJI59kNtBmuk4PCt2ao-94" vertex="1">
          <mxGeometry y="112" width="230" height="26" as="geometry" />
        </mxCell>
        <mxCell id="EyJI59kNtBmuk4PCt2ao-97" value="+onUpdate(data, ...criteria)" style="text;strokeColor=none;fillColor=none;align=left;verticalAlign=top;spacingLeft=4;spacingRight=4;overflow=hidden;rotatable=0;points=[[0,0.5],[1,0.5]];portConstraint=eastwest;whiteSpace=wrap;html=1;" parent="EyJI59kNtBmuk4PCt2ao-94" vertex="1">
          <mxGeometry y="138" width="230" height="26" as="geometry" />
        </mxCell>
        <mxCell id="EyJI59kNtBmuk4PCt2ao-109" value="+update(data, criteria)" style="text;strokeColor=none;fillColor=none;align=left;verticalAlign=top;spacingLeft=4;spacingRight=4;overflow=hidden;rotatable=0;points=[[0,0.5],[1,0.5]];portConstraint=eastwest;whiteSpace=wrap;html=1;" parent="EyJI59kNtBmuk4PCt2ao-94" vertex="1">
          <mxGeometry y="164" width="230" height="26" as="geometry" />
        </mxCell>
        <mxCell id="EyJI59kNtBmuk4PCt2ao-112" value="Pick List" style="html=1;whiteSpace=wrap;" parent="WIyWlLk6GJQsqaUBKTNV-1" vertex="1">
          <mxGeometry x="-735" y="380" width="110" height="50" as="geometry" />
        </mxCell>
        <mxCell id="EyJI59kNtBmuk4PCt2ao-113" value="" style="endArrow=block;dashed=1;endFill=0;endSize=12;html=1;rounded=0;exitX=0.5;exitY=0;exitDx=0;exitDy=0;entryX=0.495;entryY=1.115;entryDx=0;entryDy=0;entryPerimeter=0;" parent="WIyWlLk6GJQsqaUBKTNV-1" source="EyJI59kNtBmuk4PCt2ao-112" target="EyJI59kNtBmuk4PCt2ao-29" edge="1">
          <mxGeometry width="160" relative="1" as="geometry">
            <mxPoint x="-130" y="360" as="sourcePoint" />
            <mxPoint x="-290" y="360" as="targetPoint" />
          </mxGeometry>
        </mxCell>
        <mxCell id="EyJI59kNtBmuk4PCt2ao-114" value="" style="endArrow=diamondThin;endFill=1;endSize=24;html=1;rounded=0;entryX=0.5;entryY=0;entryDx=0;entryDy=0;exitX=0.513;exitY=1.077;exitDx=0;exitDy=0;exitPerimeter=0;" parent="WIyWlLk6GJQsqaUBKTNV-1" source="EyJI59kNtBmuk4PCt2ao-118" target="EyJI59kNtBmuk4PCt2ao-26" edge="1">
          <mxGeometry width="160" relative="1" as="geometry">
            <mxPoint x="-680" y="-60" as="sourcePoint" />
            <mxPoint x="-690" y="360" as="targetPoint" />
          </mxGeometry>
        </mxCell>
        <mxCell id="EyJI59kNtBmuk4PCt2ao-115" value="DataBaseSubScoket" style="swimlane;fontStyle=1;align=center;verticalAlign=top;childLayout=stackLayout;horizontal=1;startSize=26;horizontalStack=0;resizeParent=1;resizeParentMax=0;resizeLast=0;collapsible=1;marginBottom=0;whiteSpace=wrap;html=1;" parent="WIyWlLk6GJQsqaUBKTNV-1" vertex="1">
          <mxGeometry x="-800" y="-210" width="240" height="112" as="geometry" />
        </mxCell>
        <mxCell id="EyJI59kNtBmuk4PCt2ao-116" value="+subSocket: SubSocket" style="text;strokeColor=none;fillColor=none;align=left;verticalAlign=top;spacingLeft=4;spacingRight=4;overflow=hidden;rotatable=0;points=[[0,0.5],[1,0.5]];portConstraint=eastwest;whiteSpace=wrap;html=1;" parent="EyJI59kNtBmuk4PCt2ao-115" vertex="1">
          <mxGeometry y="26" width="240" height="26" as="geometry" />
        </mxCell>
        <mxCell id="EyJI59kNtBmuk4PCt2ao-120" value="-listeners: [new, change, delete]" style="text;strokeColor=none;fillColor=none;align=left;verticalAlign=top;spacingLeft=4;spacingRight=4;overflow=hidden;rotatable=0;points=[[0,0.5],[1,0.5]];portConstraint=eastwest;whiteSpace=wrap;html=1;" parent="EyJI59kNtBmuk4PCt2ao-115" vertex="1">
          <mxGeometry y="52" width="240" height="26" as="geometry" />
        </mxCell>
        <mxCell id="EyJI59kNtBmuk4PCt2ao-117" value="" style="line;strokeWidth=1;fillColor=none;align=left;verticalAlign=middle;spacingTop=-1;spacingLeft=3;spacingRight=3;rotatable=0;labelPosition=right;points=[];portConstraint=eastwest;strokeColor=inherit;" parent="EyJI59kNtBmuk4PCt2ao-115" vertex="1">
          <mxGeometry y="78" width="240" height="8" as="geometry" />
        </mxCell>
        <mxCell id="EyJI59kNtBmuk4PCt2ao-118" value="+init()" style="text;strokeColor=none;fillColor=none;align=left;verticalAlign=top;spacingLeft=4;spacingRight=4;overflow=hidden;rotatable=0;points=[[0,0.5],[1,0.5]];portConstraint=eastwest;whiteSpace=wrap;html=1;" parent="EyJI59kNtBmuk4PCt2ao-115" vertex="1">
          <mxGeometry y="86" width="240" height="26" as="geometry" />
        </mxCell>
        <mxCell id="EyJI59kNtBmuk4PCt2ao-119" value="dispatch" style="html=1;verticalAlign=bottom;endArrow=block;edgeStyle=elbowEdgeStyle;elbow=vertical;curved=0;rounded=0;exitX=0;exitY=0.5;exitDx=0;exitDy=0;entryX=0;entryY=0.5;entryDx=0;entryDy=0;" parent="WIyWlLk6GJQsqaUBKTNV-1" source="EyJI59kNtBmuk4PCt2ao-118" target="EyJI59kNtBmuk4PCt2ao-29" edge="1">
          <mxGeometry width="80" relative="1" as="geometry">
            <mxPoint x="-810" y="160" as="sourcePoint" />
            <mxPoint x="-730" y="160" as="targetPoint" />
            <Array as="points">
              <mxPoint x="-820" y="70" />
            </Array>
          </mxGeometry>
        </mxCell>
        <mxCell id="EyJI59kNtBmuk4PCt2ao-121" value="" style="endArrow=diamondThin;endFill=1;endSize=24;html=1;rounded=0;exitX=0.5;exitY=0;exitDx=0;exitDy=0;entryX=1;entryY=0.5;entryDx=0;entryDy=0;" parent="WIyWlLk6GJQsqaUBKTNV-1" source="EyJI59kNtBmuk4PCt2ao-72" target="EyJI59kNtBmuk4PCt2ao-120" edge="1">
          <mxGeometry width="160" relative="1" as="geometry">
            <mxPoint x="-10" y="170" as="sourcePoint" />
            <mxPoint x="-170" y="170" as="targetPoint" />
            <Array as="points">
              <mxPoint x="-425" y="-145" />
            </Array>
          </mxGeometry>
        </mxCell>
        <mxCell id="EyJI59kNtBmuk4PCt2ao-122" value="" style="endArrow=block;dashed=1;endFill=0;endSize=12;html=1;rounded=0;entryX=0.5;entryY=1;entryDx=0;entryDy=0;exitX=0.5;exitY=1;exitDx=0;exitDy=0;" parent="WIyWlLk6GJQsqaUBKTNV-1" source="EyJI59kNtBmuk4PCt2ao-71" edge="1">
          <mxGeometry width="160" relative="1" as="geometry">
            <mxPoint x="-10" y="170" as="sourcePoint" />
            <mxPoint x="-220" y="190" as="targetPoint" />
            <Array as="points">
              <mxPoint x="-165" />
              <mxPoint x="-220" />
            </Array>
          </mxGeometry>
        </mxCell>
        <mxCell id="EyJI59kNtBmuk4PCt2ao-123" value="" style="endArrow=diamondThin;endFill=1;endSize=24;html=1;rounded=0;entryX=1;entryY=0.5;entryDx=0;entryDy=0;exitX=0.5;exitY=0;exitDx=0;exitDy=0;" parent="WIyWlLk6GJQsqaUBKTNV-1" source="EyJI59kNtBmuk4PCt2ao-65" target="EyJI59kNtBmuk4PCt2ao-120" edge="1">
          <mxGeometry width="160" relative="1" as="geometry">
            <mxPoint x="-10" y="170" as="sourcePoint" />
            <mxPoint x="-430" y="-140" as="targetPoint" />
            <Array as="points">
              <mxPoint x="-295" y="-145" />
            </Array>
          </mxGeometry>
        </mxCell>
        <mxCell id="EyJI59kNtBmuk4PCt2ao-124" value="" style="endArrow=diamondThin;endFill=1;endSize=24;html=1;rounded=0;entryX=1;entryY=0.5;entryDx=0;entryDy=0;exitX=0.5;exitY=0;exitDx=0;exitDy=0;" parent="WIyWlLk6GJQsqaUBKTNV-1" source="EyJI59kNtBmuk4PCt2ao-71" target="EyJI59kNtBmuk4PCt2ao-120" edge="1">
          <mxGeometry width="160" relative="1" as="geometry">
            <mxPoint x="-230" y="-130" as="sourcePoint" />
            <mxPoint x="-165" y="-150" as="targetPoint" />
            <Array as="points">
              <mxPoint x="-165" y="-145" />
            </Array>
          </mxGeometry>
        </mxCell>
        <mxCell id="EyJI59kNtBmuk4PCt2ao-125" value="" style="endArrow=block;dashed=1;endFill=0;endSize=12;html=1;rounded=0;entryX=0.5;entryY=1;entryDx=0;entryDy=0;exitX=0.5;exitY=1;exitDx=0;exitDy=0;" parent="WIyWlLk6GJQsqaUBKTNV-1" source="EyJI59kNtBmuk4PCt2ao-65" edge="1">
          <mxGeometry width="160" relative="1" as="geometry">
            <mxPoint x="-230" y="90" as="sourcePoint" />
            <mxPoint x="-220" y="190" as="targetPoint" />
            <Array as="points">
              <mxPoint x="-295" />
              <mxPoint x="-220" />
            </Array>
          </mxGeometry>
        </mxCell>
        <mxCell id="EyJI59kNtBmuk4PCt2ao-126" value="" style="endArrow=block;dashed=1;endFill=0;endSize=12;html=1;rounded=0;entryX=0.5;entryY=1;entryDx=0;entryDy=0;exitX=0.5;exitY=1;exitDx=0;exitDy=0;" parent="WIyWlLk6GJQsqaUBKTNV-1" source="EyJI59kNtBmuk4PCt2ao-72" edge="1">
          <mxGeometry width="160" relative="1" as="geometry">
            <mxPoint x="-230" y="90" as="sourcePoint" />
            <mxPoint x="-220" y="180" as="targetPoint" />
            <Array as="points">
              <mxPoint x="-425" />
              <mxPoint x="-220" />
            </Array>
          </mxGeometry>
        </mxCell>
        <mxCell id="EyJI59kNtBmuk4PCt2ao-127" value="Accounts" style="html=1;whiteSpace=wrap;" parent="WIyWlLk6GJQsqaUBKTNV-1" vertex="1">
          <mxGeometry x="-600" y="380" width="110" height="50" as="geometry" />
        </mxCell>
        <mxCell id="EyJI59kNtBmuk4PCt2ao-128" value="" style="endArrow=block;dashed=1;endFill=0;endSize=12;html=1;rounded=0;exitX=0.5;exitY=0;exitDx=0;exitDy=0;entryX=0.502;entryY=1.056;entryDx=0;entryDy=0;entryPerimeter=0;" parent="WIyWlLk6GJQsqaUBKTNV-1" source="EyJI59kNtBmuk4PCt2ao-127" target="EyJI59kNtBmuk4PCt2ao-29" edge="1">
          <mxGeometry width="160" relative="1" as="geometry">
            <mxPoint x="-230" y="310" as="sourcePoint" />
            <mxPoint x="-390" y="310" as="targetPoint" />
            <Array as="points">
              <mxPoint x="-545" y="330" />
              <mxPoint x="-680" y="330" />
            </Array>
          </mxGeometry>
        </mxCell>
        <mxCell id="EyJI59kNtBmuk4PCt2ao-131" value="FIRST&lt;br&gt;" style="html=1;whiteSpace=wrap;" parent="WIyWlLk6GJQsqaUBKTNV-1" vertex="1">
          <mxGeometry x="-870" y="380" width="110" height="50" as="geometry" />
        </mxCell>
        <mxCell id="EyJI59kNtBmuk4PCt2ao-132" value="" style="endArrow=block;dashed=1;endFill=0;endSize=12;html=1;rounded=0;exitX=0.5;exitY=0;exitDx=0;exitDy=0;entryX=0.5;entryY=1.154;entryDx=0;entryDy=0;entryPerimeter=0;" parent="WIyWlLk6GJQsqaUBKTNV-1" source="EyJI59kNtBmuk4PCt2ao-131" target="EyJI59kNtBmuk4PCt2ao-29" edge="1">
          <mxGeometry width="160" relative="1" as="geometry">
            <mxPoint x="-230" y="300" as="sourcePoint" />
            <mxPoint x="-390" y="300" as="targetPoint" />
            <Array as="points">
              <mxPoint x="-815" y="330" />
              <mxPoint x="-680" y="330" />
            </Array>
          </mxGeometry>
        </mxCell>
        <mxCell id="EyJI59kNtBmuk4PCt2ao-133" value="" style="endArrow=diamondThin;endFill=1;endSize=24;html=1;rounded=0;exitX=0.5;exitY=0;exitDx=0;exitDy=0;entryX=0.5;entryY=1;entryDx=0;entryDy=0;" parent="WIyWlLk6GJQsqaUBKTNV-1" source="EyJI59kNtBmuk4PCt2ao-154" target="EyJI59kNtBmuk4PCt2ao-131" edge="1">
          <mxGeometry width="160" relative="1" as="geometry">
            <mxPoint x="-815" y="520" as="sourcePoint" />
            <mxPoint x="-810" y="530" as="targetPoint" />
          </mxGeometry>
        </mxCell>
        <mxCell id="EyJI59kNtBmuk4PCt2ao-143" value="return Listeners" style="html=1;verticalAlign=bottom;endArrow=open;dashed=1;endSize=8;edgeStyle=elbowEdgeStyle;elbow=vertical;curved=0;rounded=0;entryX=0.75;entryY=1;entryDx=0;entryDy=0;exitX=0.594;exitY=-0.008;exitDx=0;exitDy=0;exitPerimeter=0;" parent="WIyWlLk6GJQsqaUBKTNV-1" source="EyJI59kNtBmuk4PCt2ao-154" target="EyJI59kNtBmuk4PCt2ao-131" edge="1">
          <mxGeometry x="-0.0055" y="-47" relative="1" as="geometry">
            <mxPoint x="-787" y="520" as="sourcePoint" />
            <mxPoint x="-750" y="555" as="targetPoint" />
            <Array as="points" />
            <mxPoint x="47" y="42" as="offset" />
          </mxGeometry>
        </mxCell>
        <mxCell id="EyJI59kNtBmuk4PCt2ao-162" value="FIRSTEvent" style="swimlane;fontStyle=1;align=center;verticalAlign=top;childLayout=stackLayout;horizontal=1;startSize=26;horizontalStack=0;resizeParent=1;resizeParentMax=0;resizeLast=0;collapsible=1;marginBottom=0;whiteSpace=wrap;html=1;" parent="WIyWlLk6GJQsqaUBKTNV-1" vertex="1">
          <mxGeometry x="-895" y="725" width="160" height="164" as="geometry" />
        </mxCell>
        <mxCell id="EyJI59kNtBmuk4PCt2ao-350" value="+teams: FIRSTTeam[]" style="text;strokeColor=none;fillColor=none;align=left;verticalAlign=top;spacingLeft=4;spacingRight=4;overflow=hidden;rotatable=0;points=[[0,0.5],[1,0.5]];portConstraint=eastwest;whiteSpace=wrap;html=1;" parent="EyJI59kNtBmuk4PCt2ao-162" vertex="1">
          <mxGeometry y="26" width="160" height="26" as="geometry" />
        </mxCell>
        <mxCell id="EyJI59kNtBmuk4PCt2ao-351" value="+content: Object" style="text;strokeColor=none;fillColor=none;align=left;verticalAlign=top;spacingLeft=4;spacingRight=4;overflow=hidden;rotatable=0;points=[[0,0.5],[1,0.5]];portConstraint=eastwest;whiteSpace=wrap;html=1;" parent="EyJI59kNtBmuk4PCt2ao-162" vertex="1">
          <mxGeometry y="52" width="160" height="26" as="geometry" />
        </mxCell>
        <mxCell id="EyJI59kNtBmuk4PCt2ao-163" value="-#listeners" style="text;strokeColor=none;fillColor=none;align=left;verticalAlign=top;spacingLeft=4;spacingRight=4;overflow=hidden;rotatable=0;points=[[0,0.5],[1,0.5]];portConstraint=eastwest;whiteSpace=wrap;html=1;" parent="EyJI59kNtBmuk4PCt2ao-162" vertex="1">
          <mxGeometry y="78" width="160" height="26" as="geometry" />
        </mxCell>
        <mxCell id="EyJI59kNtBmuk4PCt2ao-164" value="" style="line;strokeWidth=1;fillColor=none;align=left;verticalAlign=middle;spacingTop=-1;spacingLeft=3;spacingRight=3;rotatable=0;labelPosition=right;points=[];portConstraint=eastwest;strokeColor=inherit;" parent="EyJI59kNtBmuk4PCt2ao-162" vertex="1">
          <mxGeometry y="104" width="160" height="8" as="geometry" />
        </mxCell>
        <mxCell id="EyJI59kNtBmuk4PCt2ao-361" value="+getData(criteria): Any" style="text;strokeColor=none;fillColor=none;align=left;verticalAlign=top;spacingLeft=4;spacingRight=4;overflow=hidden;rotatable=0;points=[[0,0.5],[1,0.5]];portConstraint=eastwest;whiteSpace=wrap;html=1;" parent="EyJI59kNtBmuk4PCt2ao-162" vertex="1">
          <mxGeometry y="112" width="160" height="26" as="geometry" />
        </mxCell>
        <mxCell id="EyJI59kNtBmuk4PCt2ao-165" value="+get listeners" style="text;strokeColor=none;fillColor=none;align=left;verticalAlign=top;spacingLeft=4;spacingRight=4;overflow=hidden;rotatable=0;points=[[0,0.5],[1,0.5]];portConstraint=eastwest;whiteSpace=wrap;html=1;" parent="EyJI59kNtBmuk4PCt2ao-162" vertex="1">
          <mxGeometry y="138" width="160" height="26" as="geometry" />
        </mxCell>
        <mxCell id="EyJI59kNtBmuk4PCt2ao-166" value="return Listeners" style="html=1;verticalAlign=bottom;endArrow=open;dashed=1;endSize=8;edgeStyle=elbowEdgeStyle;elbow=vertical;curved=0;rounded=0;exitX=0.75;exitY=0;exitDx=0;exitDy=0;entryX=0.672;entryY=1.114;entryDx=0;entryDy=0;entryPerimeter=0;" parent="WIyWlLk6GJQsqaUBKTNV-1" source="EyJI59kNtBmuk4PCt2ao-162" target="EyJI59kNtBmuk4PCt2ao-358" edge="1">
          <mxGeometry x="0.2643" y="-45" relative="1" as="geometry">
            <mxPoint x="-270" y="630" as="sourcePoint" />
            <mxPoint x="-775" y="630" as="targetPoint" />
            <mxPoint as="offset" />
          </mxGeometry>
        </mxCell>
        <mxCell id="EyJI59kNtBmuk4PCt2ao-167" value="MatchScouting" style="swimlane;fontStyle=1;align=center;verticalAlign=top;childLayout=stackLayout;horizontal=1;startSize=26;horizontalStack=0;resizeParent=1;resizeParentMax=0;resizeLast=0;collapsible=1;marginBottom=0;whiteSpace=wrap;html=1;" parent="WIyWlLk6GJQsqaUBKTNV-1" vertex="1">
          <mxGeometry x="-1000" y="1250" width="160" height="138" as="geometry" />
        </mxCell>
        <mxCell id="EyJI59kNtBmuk4PCt2ao-168" value="-#listeners" style="text;strokeColor=none;fillColor=none;align=left;verticalAlign=top;spacingLeft=4;spacingRight=4;overflow=hidden;rotatable=0;points=[[0,0.5],[1,0.5]];portConstraint=eastwest;whiteSpace=wrap;html=1;" parent="EyJI59kNtBmuk4PCt2ao-167" vertex="1">
          <mxGeometry y="26" width="160" height="26" as="geometry" />
        </mxCell>
        <mxCell id="EyJI59kNtBmuk4PCt2ao-356" value="+content: Object" style="text;strokeColor=none;fillColor=none;align=left;verticalAlign=top;spacingLeft=4;spacingRight=4;overflow=hidden;rotatable=0;points=[[0,0.5],[1,0.5]];portConstraint=eastwest;whiteSpace=wrap;html=1;" parent="EyJI59kNtBmuk4PCt2ao-167" vertex="1">
          <mxGeometry y="52" width="160" height="26" as="geometry" />
        </mxCell>
        <mxCell id="EyJI59kNtBmuk4PCt2ao-169" value="" style="line;strokeWidth=1;fillColor=none;align=left;verticalAlign=middle;spacingTop=-1;spacingLeft=3;spacingRight=3;rotatable=0;labelPosition=right;points=[];portConstraint=eastwest;strokeColor=inherit;" parent="EyJI59kNtBmuk4PCt2ao-167" vertex="1">
          <mxGeometry y="78" width="160" height="8" as="geometry" />
        </mxCell>
        <mxCell id="EyJI59kNtBmuk4PCt2ao-364" value="+getData(criteria): Any" style="text;strokeColor=none;fillColor=none;align=left;verticalAlign=top;spacingLeft=4;spacingRight=4;overflow=hidden;rotatable=0;points=[[0,0.5],[1,0.5]];portConstraint=eastwest;whiteSpace=wrap;html=1;" parent="EyJI59kNtBmuk4PCt2ao-167" vertex="1">
          <mxGeometry y="86" width="160" height="26" as="geometry" />
        </mxCell>
        <mxCell id="EyJI59kNtBmuk4PCt2ao-170" value="+get listeners" style="text;strokeColor=none;fillColor=none;align=left;verticalAlign=top;spacingLeft=4;spacingRight=4;overflow=hidden;rotatable=0;points=[[0,0.5],[1,0.5]];portConstraint=eastwest;whiteSpace=wrap;html=1;" parent="EyJI59kNtBmuk4PCt2ao-167" vertex="1">
          <mxGeometry y="112" width="160" height="26" as="geometry" />
        </mxCell>
        <mxCell id="EyJI59kNtBmuk4PCt2ao-171" value="FIRSTMatch" style="swimlane;fontStyle=1;align=center;verticalAlign=top;childLayout=stackLayout;horizontal=1;startSize=26;horizontalStack=0;resizeParent=1;resizeParentMax=0;resizeLast=0;collapsible=1;marginBottom=0;whiteSpace=wrap;html=1;" parent="WIyWlLk6GJQsqaUBKTNV-1" vertex="1">
          <mxGeometry x="-660" y="970" width="160" height="138" as="geometry" />
        </mxCell>
        <mxCell id="EyJI59kNtBmuk4PCt2ao-355" value="+content: Object" style="text;strokeColor=none;fillColor=none;align=left;verticalAlign=top;spacingLeft=4;spacingRight=4;overflow=hidden;rotatable=0;points=[[0,0.5],[1,0.5]];portConstraint=eastwest;whiteSpace=wrap;html=1;" parent="EyJI59kNtBmuk4PCt2ao-171" vertex="1">
          <mxGeometry y="26" width="160" height="26" as="geometry" />
        </mxCell>
        <mxCell id="EyJI59kNtBmuk4PCt2ao-172" value="-#listeners" style="text;strokeColor=none;fillColor=none;align=left;verticalAlign=top;spacingLeft=4;spacingRight=4;overflow=hidden;rotatable=0;points=[[0,0.5],[1,0.5]];portConstraint=eastwest;whiteSpace=wrap;html=1;" parent="EyJI59kNtBmuk4PCt2ao-171" vertex="1">
          <mxGeometry y="52" width="160" height="26" as="geometry" />
        </mxCell>
        <mxCell id="EyJI59kNtBmuk4PCt2ao-173" value="" style="line;strokeWidth=1;fillColor=none;align=left;verticalAlign=middle;spacingTop=-1;spacingLeft=3;spacingRight=3;rotatable=0;labelPosition=right;points=[];portConstraint=eastwest;strokeColor=inherit;" parent="EyJI59kNtBmuk4PCt2ao-171" vertex="1">
          <mxGeometry y="78" width="160" height="8" as="geometry" />
        </mxCell>
        <mxCell id="EyJI59kNtBmuk4PCt2ao-362" value="+getData(criteria): Any" style="text;strokeColor=none;fillColor=none;align=left;verticalAlign=top;spacingLeft=4;spacingRight=4;overflow=hidden;rotatable=0;points=[[0,0.5],[1,0.5]];portConstraint=eastwest;whiteSpace=wrap;html=1;" parent="EyJI59kNtBmuk4PCt2ao-171" vertex="1">
          <mxGeometry y="86" width="160" height="26" as="geometry" />
        </mxCell>
        <mxCell id="EyJI59kNtBmuk4PCt2ao-174" value="+get listeners" style="text;strokeColor=none;fillColor=none;align=left;verticalAlign=top;spacingLeft=4;spacingRight=4;overflow=hidden;rotatable=0;points=[[0,0.5],[1,0.5]];portConstraint=eastwest;whiteSpace=wrap;html=1;" parent="EyJI59kNtBmuk4PCt2ao-171" vertex="1">
          <mxGeometry y="112" width="160" height="26" as="geometry" />
        </mxCell>
        <mxCell id="EyJI59kNtBmuk4PCt2ao-175" value="FIRSTTeam" style="swimlane;fontStyle=1;align=center;verticalAlign=top;childLayout=stackLayout;horizontal=1;startSize=26;horizontalStack=0;resizeParent=1;resizeParentMax=0;resizeLast=0;collapsible=1;marginBottom=0;whiteSpace=wrap;html=1;" parent="WIyWlLk6GJQsqaUBKTNV-1" vertex="1">
          <mxGeometry x="-900" y="970" width="160" height="164" as="geometry" />
        </mxCell>
        <mxCell id="EyJI59kNtBmuk4PCt2ao-176" value="-#listeners" style="text;strokeColor=none;fillColor=none;align=left;verticalAlign=top;spacingLeft=4;spacingRight=4;overflow=hidden;rotatable=0;points=[[0,0.5],[1,0.5]];portConstraint=eastwest;whiteSpace=wrap;html=1;" parent="EyJI59kNtBmuk4PCt2ao-175" vertex="1">
          <mxGeometry y="26" width="160" height="26" as="geometry" />
        </mxCell>
        <mxCell id="EyJI59kNtBmuk4PCt2ao-354" value="+content: Object" style="text;strokeColor=none;fillColor=none;align=left;verticalAlign=top;spacingLeft=4;spacingRight=4;overflow=hidden;rotatable=0;points=[[0,0.5],[1,0.5]];portConstraint=eastwest;whiteSpace=wrap;html=1;" parent="EyJI59kNtBmuk4PCt2ao-175" vertex="1">
          <mxGeometry y="52" width="160" height="26" as="geometry" />
        </mxCell>
        <mxCell id="EyJI59kNtBmuk4PCt2ao-352" value="+matches: MatchScouting[]" style="text;strokeColor=none;fillColor=none;align=left;verticalAlign=top;spacingLeft=4;spacingRight=4;overflow=hidden;rotatable=0;points=[[0,0.5],[1,0.5]];portConstraint=eastwest;whiteSpace=wrap;html=1;" parent="EyJI59kNtBmuk4PCt2ao-175" vertex="1">
          <mxGeometry y="78" width="160" height="26" as="geometry" />
        </mxCell>
        <mxCell id="EyJI59kNtBmuk4PCt2ao-177" value="" style="line;strokeWidth=1;fillColor=none;align=left;verticalAlign=middle;spacingTop=-1;spacingLeft=3;spacingRight=3;rotatable=0;labelPosition=right;points=[];portConstraint=eastwest;strokeColor=inherit;" parent="EyJI59kNtBmuk4PCt2ao-175" vertex="1">
          <mxGeometry y="104" width="160" height="8" as="geometry" />
        </mxCell>
        <mxCell id="EyJI59kNtBmuk4PCt2ao-178" value="+get listeners" style="text;strokeColor=none;fillColor=none;align=left;verticalAlign=top;spacingLeft=4;spacingRight=4;overflow=hidden;rotatable=0;points=[[0,0.5],[1,0.5]];portConstraint=eastwest;whiteSpace=wrap;html=1;" parent="EyJI59kNtBmuk4PCt2ao-175" vertex="1">
          <mxGeometry y="112" width="160" height="26" as="geometry" />
        </mxCell>
        <mxCell id="EyJI59kNtBmuk4PCt2ao-363" value="+getData(criteria): Any" style="text;strokeColor=none;fillColor=none;align=left;verticalAlign=top;spacingLeft=4;spacingRight=4;overflow=hidden;rotatable=0;points=[[0,0.5],[1,0.5]];portConstraint=eastwest;whiteSpace=wrap;html=1;" parent="EyJI59kNtBmuk4PCt2ao-175" vertex="1">
          <mxGeometry y="138" width="160" height="26" as="geometry" />
        </mxCell>
        <mxCell id="EyJI59kNtBmuk4PCt2ao-179" value="" style="endArrow=diamondThin;endFill=1;endSize=24;html=1;rounded=0;exitX=0.5;exitY=0;exitDx=0;exitDy=0;entryX=0.476;entryY=1.069;entryDx=0;entryDy=0;entryPerimeter=0;" parent="WIyWlLk6GJQsqaUBKTNV-1" source="EyJI59kNtBmuk4PCt2ao-175" target="EyJI59kNtBmuk4PCt2ao-165" edge="1">
          <mxGeometry width="160" relative="1" as="geometry">
            <mxPoint x="-230" y="890" as="sourcePoint" />
            <mxPoint x="-820" y="890" as="targetPoint" />
          </mxGeometry>
        </mxCell>
        <mxCell id="EyJI59kNtBmuk4PCt2ao-180" value="" style="endArrow=diamondThin;endFill=1;endSize=24;html=1;rounded=0;exitX=0.5;exitY=0;exitDx=0;exitDy=0;entryX=0.468;entryY=1.095;entryDx=0;entryDy=0;entryPerimeter=0;" parent="WIyWlLk6GJQsqaUBKTNV-1" source="EyJI59kNtBmuk4PCt2ao-171" target="EyJI59kNtBmuk4PCt2ao-165" edge="1">
          <mxGeometry width="160" relative="1" as="geometry">
            <mxPoint x="-230" y="890" as="sourcePoint" />
            <mxPoint x="-560" y="860" as="targetPoint" />
            <Array as="points">
              <mxPoint x="-580" y="960" />
              <mxPoint x="-710" y="960" />
              <mxPoint x="-820" y="960" />
              <mxPoint x="-820" y="940" />
            </Array>
          </mxGeometry>
        </mxCell>
        <mxCell id="EyJI59kNtBmuk4PCt2ao-188" value="return Listeners" style="html=1;verticalAlign=bottom;endArrow=open;dashed=1;endSize=8;edgeStyle=elbowEdgeStyle;elbow=vertical;curved=0;rounded=0;exitX=0.75;exitY=0;exitDx=0;exitDy=0;" parent="WIyWlLk6GJQsqaUBKTNV-1" source="EyJI59kNtBmuk4PCt2ao-175" edge="1">
          <mxGeometry x="0.2643" y="-45" relative="1" as="geometry">
            <mxPoint x="-765" y="760" as="sourcePoint" />
            <mxPoint x="-780" y="890" as="targetPoint" />
            <mxPoint as="offset" />
          </mxGeometry>
        </mxCell>
        <mxCell id="EyJI59kNtBmuk4PCt2ao-189" value="" style="html=1;verticalAlign=bottom;endArrow=open;dashed=1;endSize=8;edgeStyle=elbowEdgeStyle;elbow=vertical;curved=0;rounded=0;exitX=0.313;exitY=0.01;exitDx=0;exitDy=0;exitPerimeter=0;entryX=0.714;entryY=1.111;entryDx=0;entryDy=0;entryPerimeter=0;" parent="WIyWlLk6GJQsqaUBKTNV-1" source="EyJI59kNtBmuk4PCt2ao-171" target="EyJI59kNtBmuk4PCt2ao-165" edge="1">
          <mxGeometry x="-0.6828" y="-163" relative="1" as="geometry">
            <mxPoint x="-610" y="920" as="sourcePoint" />
            <mxPoint x="-781" y="920" as="targetPoint" />
            <mxPoint x="160" y="133" as="offset" />
            <Array as="points">
              <mxPoint x="-700" y="960" />
            </Array>
          </mxGeometry>
        </mxCell>
        <mxCell id="EyJI59kNtBmuk4PCt2ao-192" value="TatorInfo" style="swimlane;fontStyle=1;align=center;verticalAlign=top;childLayout=stackLayout;horizontal=1;startSize=26;horizontalStack=0;resizeParent=1;resizeParentMax=0;resizeLast=0;collapsible=1;marginBottom=0;whiteSpace=wrap;html=1;" parent="WIyWlLk6GJQsqaUBKTNV-1" vertex="1">
          <mxGeometry x="-800" y="1250" width="160" height="138" as="geometry" />
        </mxCell>
        <mxCell id="EyJI59kNtBmuk4PCt2ao-193" value="-#listeners" style="text;strokeColor=none;fillColor=none;align=left;verticalAlign=top;spacingLeft=4;spacingRight=4;overflow=hidden;rotatable=0;points=[[0,0.5],[1,0.5]];portConstraint=eastwest;whiteSpace=wrap;html=1;" parent="EyJI59kNtBmuk4PCt2ao-192" vertex="1">
          <mxGeometry y="26" width="160" height="26" as="geometry" />
        </mxCell>
        <mxCell id="EyJI59kNtBmuk4PCt2ao-357" value="+content: Object" style="text;strokeColor=none;fillColor=none;align=left;verticalAlign=top;spacingLeft=4;spacingRight=4;overflow=hidden;rotatable=0;points=[[0,0.5],[1,0.5]];portConstraint=eastwest;whiteSpace=wrap;html=1;" parent="EyJI59kNtBmuk4PCt2ao-192" vertex="1">
          <mxGeometry y="52" width="160" height="26" as="geometry" />
        </mxCell>
        <mxCell id="EyJI59kNtBmuk4PCt2ao-194" value="" style="line;strokeWidth=1;fillColor=none;align=left;verticalAlign=middle;spacingTop=-1;spacingLeft=3;spacingRight=3;rotatable=0;labelPosition=right;points=[];portConstraint=eastwest;strokeColor=inherit;" parent="EyJI59kNtBmuk4PCt2ao-192" vertex="1">
          <mxGeometry y="78" width="160" height="8" as="geometry" />
        </mxCell>
        <mxCell id="EyJI59kNtBmuk4PCt2ao-195" value="+get listeners" style="text;strokeColor=none;fillColor=none;align=left;verticalAlign=top;spacingLeft=4;spacingRight=4;overflow=hidden;rotatable=0;points=[[0,0.5],[1,0.5]];portConstraint=eastwest;whiteSpace=wrap;html=1;" parent="EyJI59kNtBmuk4PCt2ao-192" vertex="1">
          <mxGeometry y="86" width="160" height="26" as="geometry" />
        </mxCell>
        <mxCell id="EyJI59kNtBmuk4PCt2ao-365" value="+getData(criteria): Any" style="text;strokeColor=none;fillColor=none;align=left;verticalAlign=top;spacingLeft=4;spacingRight=4;overflow=hidden;rotatable=0;points=[[0,0.5],[1,0.5]];portConstraint=eastwest;whiteSpace=wrap;html=1;" parent="EyJI59kNtBmuk4PCt2ao-192" vertex="1">
          <mxGeometry y="112" width="160" height="26" as="geometry" />
        </mxCell>
        <mxCell id="EyJI59kNtBmuk4PCt2ao-196" value="" style="html=1;verticalAlign=bottom;endArrow=open;dashed=1;endSize=8;edgeStyle=elbowEdgeStyle;elbow=vertical;curved=0;rounded=0;exitX=0.5;exitY=0;exitDx=0;exitDy=0;" parent="WIyWlLk6GJQsqaUBKTNV-1" source="EyJI59kNtBmuk4PCt2ao-192" edge="1">
          <mxGeometry x="-0.6828" y="-163" relative="1" as="geometry">
            <mxPoint x="-910" y="1160" as="sourcePoint" />
            <mxPoint x="-820" y="1130" as="targetPoint" />
            <mxPoint x="160" y="133" as="offset" />
            <Array as="points" />
          </mxGeometry>
        </mxCell>
        <mxCell id="EyJI59kNtBmuk4PCt2ao-198" value="" style="endArrow=diamondThin;endFill=1;endSize=24;html=1;rounded=0;entryX=0.63;entryY=1.003;entryDx=0;entryDy=0;exitX=0.25;exitY=0;exitDx=0;exitDy=0;entryPerimeter=0;" parent="WIyWlLk6GJQsqaUBKTNV-1" source="EyJI59kNtBmuk4PCt2ao-192" target="EyJI59kNtBmuk4PCt2ao-363" edge="1">
          <mxGeometry width="160" relative="1" as="geometry">
            <mxPoint x="-400" y="1190" as="sourcePoint" />
            <mxPoint x="-640" y="1110" as="targetPoint" />
            <Array as="points">
              <mxPoint x="-760" y="1180" />
              <mxPoint x="-780" y="1180" />
              <mxPoint x="-800" y="1180" />
            </Array>
          </mxGeometry>
        </mxCell>
        <mxCell id="EyJI59kNtBmuk4PCt2ao-199" value="" style="endArrow=diamondThin;endFill=1;endSize=24;html=1;rounded=0;entryX=0.63;entryY=1.003;entryDx=0;entryDy=0;exitX=0.75;exitY=0;exitDx=0;exitDy=0;entryPerimeter=0;" parent="WIyWlLk6GJQsqaUBKTNV-1" source="EyJI59kNtBmuk4PCt2ao-167" target="EyJI59kNtBmuk4PCt2ao-363" edge="1">
          <mxGeometry width="160" relative="1" as="geometry">
            <mxPoint x="-750" y="1160" as="sourcePoint" />
            <mxPoint x="-790" y="1090" as="targetPoint" />
            <Array as="points">
              <mxPoint x="-880" y="1180" />
              <mxPoint x="-830" y="1180" />
              <mxPoint x="-800" y="1180" />
            </Array>
          </mxGeometry>
        </mxCell>
        <mxCell id="EyJI59kNtBmuk4PCt2ao-200" value="return Listeners" style="html=1;verticalAlign=bottom;endArrow=open;dashed=1;endSize=8;edgeStyle=elbowEdgeStyle;elbow=vertical;curved=0;rounded=0;exitX=0.5;exitY=0;exitDx=0;exitDy=0;" parent="WIyWlLk6GJQsqaUBKTNV-1" source="EyJI59kNtBmuk4PCt2ao-167" edge="1">
          <mxGeometry x="-0.5986" y="30" relative="1" as="geometry">
            <mxPoint x="-920.5" y="1156" as="sourcePoint" />
            <mxPoint x="-820" y="1130" as="targetPoint" />
            <mxPoint x="1" as="offset" />
            <Array as="points" />
          </mxGeometry>
        </mxCell>
        <mxCell id="EyJI59kNtBmuk4PCt2ao-202" value="Cached Data" style="swimlane;fontStyle=1;align=center;verticalAlign=top;childLayout=stackLayout;horizontal=1;startSize=26;horizontalStack=0;resizeParent=1;resizeParentMax=0;resizeLast=0;collapsible=1;marginBottom=0;whiteSpace=wrap;html=1;" parent="WIyWlLk6GJQsqaUBKTNV-1" vertex="1">
          <mxGeometry x="-1240" y="750" width="160" height="216" as="geometry">
            <mxRectangle x="-330" y="620" width="110" height="30" as="alternateBounds" />
          </mxGeometry>
        </mxCell>
        <mxCell id="EyJI59kNtBmuk4PCt2ao-203" value="-latestActivity" style="text;strokeColor=none;fillColor=none;align=left;verticalAlign=top;spacingLeft=4;spacingRight=4;overflow=hidden;rotatable=0;points=[[0,0.5],[1,0.5]];portConstraint=eastwest;whiteSpace=wrap;html=1;" parent="EyJI59kNtBmuk4PCt2ao-202" vertex="1">
          <mxGeometry y="26" width="160" height="26" as="geometry" />
        </mxCell>
        <mxCell id="EyJI59kNtBmuk4PCt2ao-210" value="-timeout: Timeout" style="text;strokeColor=none;fillColor=none;align=left;verticalAlign=top;spacingLeft=4;spacingRight=4;overflow=hidden;rotatable=0;points=[[0,0.5],[1,0.5]];portConstraint=eastwest;whiteSpace=wrap;html=1;" parent="EyJI59kNtBmuk4PCt2ao-202" vertex="1">
          <mxGeometry y="52" width="160" height="26" as="geometry" />
        </mxCell>
        <mxCell id="EyJI59kNtBmuk4PCt2ao-206" value="- content" style="text;strokeColor=none;fillColor=none;align=left;verticalAlign=top;spacingLeft=4;spacingRight=4;overflow=hidden;rotatable=0;points=[[0,0.5],[1,0.5]];portConstraint=eastwest;whiteSpace=wrap;html=1;" parent="EyJI59kNtBmuk4PCt2ao-202" vertex="1">
          <mxGeometry y="78" width="160" height="26" as="geometry" />
        </mxCell>
        <mxCell id="EyJI59kNtBmuk4PCt2ao-204" value="" style="line;strokeWidth=1;fillColor=none;align=left;verticalAlign=middle;spacingTop=-1;spacingLeft=3;spacingRight=3;rotatable=0;labelPosition=right;points=[];portConstraint=eastwest;strokeColor=inherit;" parent="EyJI59kNtBmuk4PCt2ao-202" vertex="1">
          <mxGeometry y="104" width="160" height="8" as="geometry" />
        </mxCell>
        <mxCell id="EyJI59kNtBmuk4PCt2ao-207" value="+ get data" style="text;strokeColor=none;fillColor=none;align=left;verticalAlign=top;spacingLeft=4;spacingRight=4;overflow=hidden;rotatable=0;points=[[0,0.5],[1,0.5]];portConstraint=eastwest;whiteSpace=wrap;html=1;" parent="EyJI59kNtBmuk4PCt2ao-202" vertex="1">
          <mxGeometry y="112" width="160" height="26" as="geometry" />
        </mxCell>
        <mxCell id="EyJI59kNtBmuk4PCt2ao-208" value="+ removeData" style="text;strokeColor=none;fillColor=none;align=left;verticalAlign=top;spacingLeft=4;spacingRight=4;overflow=hidden;rotatable=0;points=[[0,0.5],[1,0.5]];portConstraint=eastwest;whiteSpace=wrap;html=1;" parent="EyJI59kNtBmuk4PCt2ao-202" vertex="1">
          <mxGeometry y="138" width="160" height="26" as="geometry" />
        </mxCell>
        <mxCell id="EyJI59kNtBmuk4PCt2ao-209" value="+ set data" style="text;strokeColor=none;fillColor=none;align=left;verticalAlign=top;spacingLeft=4;spacingRight=4;overflow=hidden;rotatable=0;points=[[0,0.5],[1,0.5]];portConstraint=eastwest;whiteSpace=wrap;html=1;" parent="EyJI59kNtBmuk4PCt2ao-202" vertex="1">
          <mxGeometry y="164" width="160" height="26" as="geometry" />
        </mxCell>
        <mxCell id="EyJI59kNtBmuk4PCt2ao-211" value="- resetTimer" style="text;strokeColor=none;fillColor=none;align=left;verticalAlign=top;spacingLeft=4;spacingRight=4;overflow=hidden;rotatable=0;points=[[0,0.5],[1,0.5]];portConstraint=eastwest;whiteSpace=wrap;html=1;" parent="EyJI59kNtBmuk4PCt2ao-202" vertex="1">
          <mxGeometry y="190" width="160" height="26" as="geometry" />
        </mxCell>
        <mxCell id="EyJI59kNtBmuk4PCt2ao-215" value="FIRSTYear" style="swimlane;fontStyle=1;align=center;verticalAlign=top;childLayout=stackLayout;horizontal=1;startSize=26;horizontalStack=0;resizeParent=1;resizeParentMax=0;resizeLast=0;collapsible=1;marginBottom=0;whiteSpace=wrap;html=1;" parent="WIyWlLk6GJQsqaUBKTNV-1" vertex="1">
          <mxGeometry x="130" y="725" width="160" height="138" as="geometry" />
        </mxCell>
        <mxCell id="EyJI59kNtBmuk4PCt2ao-216" value="-#listeners" style="text;strokeColor=none;fillColor=none;align=left;verticalAlign=top;spacingLeft=4;spacingRight=4;overflow=hidden;rotatable=0;points=[[0,0.5],[1,0.5]];portConstraint=eastwest;whiteSpace=wrap;html=1;" parent="EyJI59kNtBmuk4PCt2ao-215" vertex="1">
          <mxGeometry y="26" width="160" height="26" as="geometry" />
        </mxCell>
        <mxCell id="EyJI59kNtBmuk4PCt2ao-219" value="+currentEvent" style="text;strokeColor=none;fillColor=none;align=left;verticalAlign=top;spacingLeft=4;spacingRight=4;overflow=hidden;rotatable=0;points=[[0,0.5],[1,0.5]];portConstraint=eastwest;whiteSpace=wrap;html=1;" parent="EyJI59kNtBmuk4PCt2ao-215" vertex="1">
          <mxGeometry y="52" width="160" height="26" as="geometry" />
        </mxCell>
        <mxCell id="EyJI59kNtBmuk4PCt2ao-220" value="+events" style="text;strokeColor=none;fillColor=none;align=left;verticalAlign=top;spacingLeft=4;spacingRight=4;overflow=hidden;rotatable=0;points=[[0,0.5],[1,0.5]];portConstraint=eastwest;whiteSpace=wrap;html=1;" parent="EyJI59kNtBmuk4PCt2ao-215" vertex="1">
          <mxGeometry y="78" width="160" height="26" as="geometry" />
        </mxCell>
        <mxCell id="EyJI59kNtBmuk4PCt2ao-217" value="" style="line;strokeWidth=1;fillColor=none;align=left;verticalAlign=middle;spacingTop=-1;spacingLeft=3;spacingRight=3;rotatable=0;labelPosition=right;points=[];portConstraint=eastwest;strokeColor=inherit;" parent="EyJI59kNtBmuk4PCt2ao-215" vertex="1">
          <mxGeometry y="104" width="160" height="8" as="geometry" />
        </mxCell>
        <mxCell id="EyJI59kNtBmuk4PCt2ao-218" value="+get listeners" style="text;strokeColor=none;fillColor=none;align=left;verticalAlign=top;spacingLeft=4;spacingRight=4;overflow=hidden;rotatable=0;points=[[0,0.5],[1,0.5]];portConstraint=eastwest;whiteSpace=wrap;html=1;" parent="EyJI59kNtBmuk4PCt2ao-215" vertex="1">
          <mxGeometry y="112" width="160" height="26" as="geometry" />
        </mxCell>
        <mxCell id="EyJI59kNtBmuk4PCt2ao-221" value="FIRSTEvent" style="swimlane;fontStyle=1;align=center;verticalAlign=top;childLayout=stackLayout;horizontal=1;startSize=26;horizontalStack=0;resizeParent=1;resizeParentMax=0;resizeLast=0;collapsible=1;marginBottom=0;whiteSpace=wrap;html=1;" parent="WIyWlLk6GJQsqaUBKTNV-1" vertex="1">
          <mxGeometry x="130" y="905" width="160" height="86" as="geometry" />
        </mxCell>
        <mxCell id="EyJI59kNtBmuk4PCt2ao-231" value="-#listeners" style="text;strokeColor=none;fillColor=none;align=left;verticalAlign=top;spacingLeft=4;spacingRight=4;overflow=hidden;rotatable=0;points=[[0,0.5],[1,0.5]];portConstraint=eastwest;whiteSpace=wrap;html=1;" parent="EyJI59kNtBmuk4PCt2ao-221" vertex="1">
          <mxGeometry y="26" width="160" height="26" as="geometry" />
        </mxCell>
        <mxCell id="EyJI59kNtBmuk4PCt2ao-223" value="" style="line;strokeWidth=1;fillColor=none;align=left;verticalAlign=middle;spacingTop=-1;spacingLeft=3;spacingRight=3;rotatable=0;labelPosition=right;points=[];portConstraint=eastwest;strokeColor=inherit;" parent="EyJI59kNtBmuk4PCt2ao-221" vertex="1">
          <mxGeometry y="52" width="160" height="8" as="geometry" />
        </mxCell>
        <mxCell id="EyJI59kNtBmuk4PCt2ao-232" value="+get listeners" style="text;strokeColor=none;fillColor=none;align=left;verticalAlign=top;spacingLeft=4;spacingRight=4;overflow=hidden;rotatable=0;points=[[0,0.5],[1,0.5]];portConstraint=eastwest;whiteSpace=wrap;html=1;" parent="EyJI59kNtBmuk4PCt2ao-221" vertex="1">
          <mxGeometry y="60" width="160" height="26" as="geometry" />
        </mxCell>
        <mxCell id="EyJI59kNtBmuk4PCt2ao-225" value="" style="endArrow=diamondThin;endFill=1;endSize=24;html=1;rounded=0;exitX=0.5;exitY=0;exitDx=0;exitDy=0;entryX=0.502;entryY=1.107;entryDx=0;entryDy=0;entryPerimeter=0;" parent="WIyWlLk6GJQsqaUBKTNV-1" source="EyJI59kNtBmuk4PCt2ao-221" target="EyJI59kNtBmuk4PCt2ao-218" edge="1">
          <mxGeometry width="160" relative="1" as="geometry">
            <mxPoint x="-420" y="925" as="sourcePoint" />
            <mxPoint x="210" y="865" as="targetPoint" />
          </mxGeometry>
        </mxCell>
        <mxCell id="EyJI59kNtBmuk4PCt2ao-227" value="FIRST" style="swimlane;fontStyle=1;align=center;verticalAlign=top;childLayout=stackLayout;horizontal=1;startSize=26;horizontalStack=0;resizeParent=1;resizeParentMax=0;resizeLast=0;collapsible=1;marginBottom=0;whiteSpace=wrap;html=1;" parent="WIyWlLk6GJQsqaUBKTNV-1" vertex="1">
          <mxGeometry x="130" y="529" width="160" height="112" as="geometry" />
        </mxCell>
        <mxCell id="EyJI59kNtBmuk4PCt2ao-228" value="&lt;u&gt;+currentYear&lt;/u&gt;" style="text;strokeColor=none;fillColor=none;align=left;verticalAlign=top;spacingLeft=4;spacingRight=4;overflow=hidden;rotatable=0;points=[[0,0.5],[1,0.5]];portConstraint=eastwest;whiteSpace=wrap;html=1;" parent="EyJI59kNtBmuk4PCt2ao-227" vertex="1">
          <mxGeometry y="26" width="160" height="26" as="geometry" />
        </mxCell>
        <mxCell id="EyJI59kNtBmuk4PCt2ao-345" value="&lt;u&gt;+subSocket: SubSocket&lt;/u&gt;" style="text;strokeColor=none;fillColor=none;align=left;verticalAlign=top;spacingLeft=4;spacingRight=4;overflow=hidden;rotatable=0;points=[[0,0.5],[1,0.5]];portConstraint=eastwest;whiteSpace=wrap;html=1;" parent="EyJI59kNtBmuk4PCt2ao-227" vertex="1">
          <mxGeometry y="52" width="160" height="26" as="geometry" />
        </mxCell>
        <mxCell id="EyJI59kNtBmuk4PCt2ao-229" value="" style="line;strokeWidth=1;fillColor=none;align=left;verticalAlign=middle;spacingTop=-1;spacingLeft=3;spacingRight=3;rotatable=0;labelPosition=right;points=[];portConstraint=eastwest;strokeColor=inherit;" parent="EyJI59kNtBmuk4PCt2ao-227" vertex="1">
          <mxGeometry y="78" width="160" height="8" as="geometry" />
        </mxCell>
        <mxCell id="EyJI59kNtBmuk4PCt2ao-346" value="&lt;u&gt;+get currentEvent&lt;/u&gt;" style="text;strokeColor=none;fillColor=none;align=left;verticalAlign=top;spacingLeft=4;spacingRight=4;overflow=hidden;rotatable=0;points=[[0,0.5],[1,0.5]];portConstraint=eastwest;whiteSpace=wrap;html=1;" parent="EyJI59kNtBmuk4PCt2ao-227" vertex="1">
          <mxGeometry y="86" width="160" height="26" as="geometry" />
        </mxCell>
        <mxCell id="EyJI59kNtBmuk4PCt2ao-233" value="" style="endArrow=diamondThin;endFill=1;endSize=24;html=1;rounded=0;exitX=0.5;exitY=0;exitDx=0;exitDy=0;entryX=0.5;entryY=1;entryDx=0;entryDy=0;" parent="WIyWlLk6GJQsqaUBKTNV-1" source="EyJI59kNtBmuk4PCt2ao-215" target="EyJI59kNtBmuk4PCt2ao-227" edge="1">
          <mxGeometry width="160" relative="1" as="geometry">
            <mxPoint x="-190" y="695" as="sourcePoint" />
            <mxPoint x="-30" y="695" as="targetPoint" />
          </mxGeometry>
        </mxCell>
        <mxCell id="EyJI59kNtBmuk4PCt2ao-234" value="return Listener&lt;br&gt;" style="html=1;verticalAlign=bottom;endArrow=open;dashed=1;endSize=8;edgeStyle=elbowEdgeStyle;elbow=vertical;curved=0;rounded=0;entryX=0.745;entryY=1.09;entryDx=0;entryDy=0;entryPerimeter=0;exitX=0.75;exitY=0;exitDx=0;exitDy=0;" parent="WIyWlLk6GJQsqaUBKTNV-1" source="EyJI59kNtBmuk4PCt2ao-215" target="EyJI59kNtBmuk4PCt2ao-346" edge="1">
          <mxGeometry x="0.248" y="-50" relative="1" as="geometry">
            <mxPoint x="320" y="715" as="sourcePoint" />
            <mxPoint x="260" y="655" as="targetPoint" />
            <mxPoint as="offset" />
          </mxGeometry>
        </mxCell>
        <mxCell id="EyJI59kNtBmuk4PCt2ao-235" value="return Listener&lt;br&gt;" style="html=1;verticalAlign=bottom;endArrow=open;dashed=1;endSize=8;edgeStyle=elbowEdgeStyle;elbow=vertical;curved=0;rounded=0;entryX=0.752;entryY=1.107;entryDx=0;entryDy=0;entryPerimeter=0;exitX=0.75;exitY=0;exitDx=0;exitDy=0;" parent="WIyWlLk6GJQsqaUBKTNV-1" source="EyJI59kNtBmuk4PCt2ao-221" target="EyJI59kNtBmuk4PCt2ao-218" edge="1">
          <mxGeometry x="0.248" y="-50" relative="1" as="geometry">
            <mxPoint x="350" y="935" as="sourcePoint" />
            <mxPoint x="350" y="895" as="targetPoint" />
            <mxPoint as="offset" />
          </mxGeometry>
        </mxCell>
        <mxCell id="EyJI59kNtBmuk4PCt2ao-236" value="MatchScouting" style="swimlane;fontStyle=1;align=center;verticalAlign=top;childLayout=stackLayout;horizontal=1;startSize=26;horizontalStack=0;resizeParent=1;resizeParentMax=0;resizeLast=0;collapsible=1;marginBottom=0;whiteSpace=wrap;html=1;" parent="WIyWlLk6GJQsqaUBKTNV-1" vertex="1">
          <mxGeometry x="20" y="1232" width="160" height="86" as="geometry" />
        </mxCell>
        <mxCell id="EyJI59kNtBmuk4PCt2ao-237" value="-#listeners" style="text;strokeColor=none;fillColor=none;align=left;verticalAlign=top;spacingLeft=4;spacingRight=4;overflow=hidden;rotatable=0;points=[[0,0.5],[1,0.5]];portConstraint=eastwest;whiteSpace=wrap;html=1;" parent="EyJI59kNtBmuk4PCt2ao-236" vertex="1">
          <mxGeometry y="26" width="160" height="26" as="geometry" />
        </mxCell>
        <mxCell id="EyJI59kNtBmuk4PCt2ao-238" value="" style="line;strokeWidth=1;fillColor=none;align=left;verticalAlign=middle;spacingTop=-1;spacingLeft=3;spacingRight=3;rotatable=0;labelPosition=right;points=[];portConstraint=eastwest;strokeColor=inherit;" parent="EyJI59kNtBmuk4PCt2ao-236" vertex="1">
          <mxGeometry y="52" width="160" height="8" as="geometry" />
        </mxCell>
        <mxCell id="EyJI59kNtBmuk4PCt2ao-239" value="+get listeners" style="text;strokeColor=none;fillColor=none;align=left;verticalAlign=top;spacingLeft=4;spacingRight=4;overflow=hidden;rotatable=0;points=[[0,0.5],[1,0.5]];portConstraint=eastwest;whiteSpace=wrap;html=1;" parent="EyJI59kNtBmuk4PCt2ao-236" vertex="1">
          <mxGeometry y="60" width="160" height="26" as="geometry" />
        </mxCell>
        <mxCell id="EyJI59kNtBmuk4PCt2ao-240" value="FIRSTMatch" style="swimlane;fontStyle=1;align=center;verticalAlign=top;childLayout=stackLayout;horizontal=1;startSize=26;horizontalStack=0;resizeParent=1;resizeParentMax=0;resizeLast=0;collapsible=1;marginBottom=0;whiteSpace=wrap;html=1;" parent="WIyWlLk6GJQsqaUBKTNV-1" vertex="1">
          <mxGeometry x="360" y="1072" width="160" height="86" as="geometry" />
        </mxCell>
        <mxCell id="EyJI59kNtBmuk4PCt2ao-241" value="-#listeners" style="text;strokeColor=none;fillColor=none;align=left;verticalAlign=top;spacingLeft=4;spacingRight=4;overflow=hidden;rotatable=0;points=[[0,0.5],[1,0.5]];portConstraint=eastwest;whiteSpace=wrap;html=1;" parent="EyJI59kNtBmuk4PCt2ao-240" vertex="1">
          <mxGeometry y="26" width="160" height="26" as="geometry" />
        </mxCell>
        <mxCell id="EyJI59kNtBmuk4PCt2ao-242" value="" style="line;strokeWidth=1;fillColor=none;align=left;verticalAlign=middle;spacingTop=-1;spacingLeft=3;spacingRight=3;rotatable=0;labelPosition=right;points=[];portConstraint=eastwest;strokeColor=inherit;" parent="EyJI59kNtBmuk4PCt2ao-240" vertex="1">
          <mxGeometry y="52" width="160" height="8" as="geometry" />
        </mxCell>
        <mxCell id="EyJI59kNtBmuk4PCt2ao-243" value="+get listeners" style="text;strokeColor=none;fillColor=none;align=left;verticalAlign=top;spacingLeft=4;spacingRight=4;overflow=hidden;rotatable=0;points=[[0,0.5],[1,0.5]];portConstraint=eastwest;whiteSpace=wrap;html=1;" parent="EyJI59kNtBmuk4PCt2ao-240" vertex="1">
          <mxGeometry y="60" width="160" height="26" as="geometry" />
        </mxCell>
        <mxCell id="EyJI59kNtBmuk4PCt2ao-244" value="FIRSTTeam" style="swimlane;fontStyle=1;align=center;verticalAlign=top;childLayout=stackLayout;horizontal=1;startSize=26;horizontalStack=0;resizeParent=1;resizeParentMax=0;resizeLast=0;collapsible=1;marginBottom=0;whiteSpace=wrap;html=1;" parent="WIyWlLk6GJQsqaUBKTNV-1" vertex="1">
          <mxGeometry x="120" y="1072" width="160" height="86" as="geometry" />
        </mxCell>
        <mxCell id="EyJI59kNtBmuk4PCt2ao-245" value="-#listeners" style="text;strokeColor=none;fillColor=none;align=left;verticalAlign=top;spacingLeft=4;spacingRight=4;overflow=hidden;rotatable=0;points=[[0,0.5],[1,0.5]];portConstraint=eastwest;whiteSpace=wrap;html=1;" parent="EyJI59kNtBmuk4PCt2ao-244" vertex="1">
          <mxGeometry y="26" width="160" height="26" as="geometry" />
        </mxCell>
        <mxCell id="EyJI59kNtBmuk4PCt2ao-246" value="" style="line;strokeWidth=1;fillColor=none;align=left;verticalAlign=middle;spacingTop=-1;spacingLeft=3;spacingRight=3;rotatable=0;labelPosition=right;points=[];portConstraint=eastwest;strokeColor=inherit;" parent="EyJI59kNtBmuk4PCt2ao-244" vertex="1">
          <mxGeometry y="52" width="160" height="8" as="geometry" />
        </mxCell>
        <mxCell id="EyJI59kNtBmuk4PCt2ao-247" value="+get listeners" style="text;strokeColor=none;fillColor=none;align=left;verticalAlign=top;spacingLeft=4;spacingRight=4;overflow=hidden;rotatable=0;points=[[0,0.5],[1,0.5]];portConstraint=eastwest;whiteSpace=wrap;html=1;" parent="EyJI59kNtBmuk4PCt2ao-244" vertex="1">
          <mxGeometry y="60" width="160" height="26" as="geometry" />
        </mxCell>
        <mxCell id="EyJI59kNtBmuk4PCt2ao-250" value="return Listeners" style="html=1;verticalAlign=bottom;endArrow=open;dashed=1;endSize=8;edgeStyle=elbowEdgeStyle;elbow=vertical;curved=0;rounded=0;exitX=0.75;exitY=0;exitDx=0;exitDy=0;" parent="WIyWlLk6GJQsqaUBKTNV-1" source="EyJI59kNtBmuk4PCt2ao-244" edge="1">
          <mxGeometry x="0.2643" y="-45" relative="1" as="geometry">
            <mxPoint x="255" y="912" as="sourcePoint" />
            <mxPoint x="240" y="992" as="targetPoint" />
            <mxPoint as="offset" />
          </mxGeometry>
        </mxCell>
        <mxCell id="EyJI59kNtBmuk4PCt2ao-251" value="" style="html=1;verticalAlign=bottom;endArrow=open;dashed=1;endSize=8;edgeStyle=elbowEdgeStyle;elbow=vertical;curved=0;rounded=0;exitX=0.75;exitY=0;exitDx=0;exitDy=0;entryX=0.714;entryY=1.099;entryDx=0;entryDy=0;entryPerimeter=0;" parent="WIyWlLk6GJQsqaUBKTNV-1" edge="1">
          <mxGeometry x="-0.6828" y="-163" relative="1" as="geometry">
            <mxPoint x="410" y="1072" as="sourcePoint" />
            <mxPoint x="239" y="991" as="targetPoint" />
            <mxPoint x="160" y="133" as="offset" />
            <Array as="points">
              <mxPoint x="290" y="1032" />
            </Array>
          </mxGeometry>
        </mxCell>
        <mxCell id="EyJI59kNtBmuk4PCt2ao-252" value="TatorInfo" style="swimlane;fontStyle=1;align=center;verticalAlign=top;childLayout=stackLayout;horizontal=1;startSize=26;horizontalStack=0;resizeParent=1;resizeParentMax=0;resizeLast=0;collapsible=1;marginBottom=0;whiteSpace=wrap;html=1;" parent="WIyWlLk6GJQsqaUBKTNV-1" vertex="1">
          <mxGeometry x="220" y="1232" width="160" height="86" as="geometry" />
        </mxCell>
        <mxCell id="EyJI59kNtBmuk4PCt2ao-253" value="-#listeners" style="text;strokeColor=none;fillColor=none;align=left;verticalAlign=top;spacingLeft=4;spacingRight=4;overflow=hidden;rotatable=0;points=[[0,0.5],[1,0.5]];portConstraint=eastwest;whiteSpace=wrap;html=1;" parent="EyJI59kNtBmuk4PCt2ao-252" vertex="1">
          <mxGeometry y="26" width="160" height="26" as="geometry" />
        </mxCell>
        <mxCell id="EyJI59kNtBmuk4PCt2ao-254" value="" style="line;strokeWidth=1;fillColor=none;align=left;verticalAlign=middle;spacingTop=-1;spacingLeft=3;spacingRight=3;rotatable=0;labelPosition=right;points=[];portConstraint=eastwest;strokeColor=inherit;" parent="EyJI59kNtBmuk4PCt2ao-252" vertex="1">
          <mxGeometry y="52" width="160" height="8" as="geometry" />
        </mxCell>
        <mxCell id="EyJI59kNtBmuk4PCt2ao-255" value="+get listeners" style="text;strokeColor=none;fillColor=none;align=left;verticalAlign=top;spacingLeft=4;spacingRight=4;overflow=hidden;rotatable=0;points=[[0,0.5],[1,0.5]];portConstraint=eastwest;whiteSpace=wrap;html=1;" parent="EyJI59kNtBmuk4PCt2ao-252" vertex="1">
          <mxGeometry y="60" width="160" height="26" as="geometry" />
        </mxCell>
        <mxCell id="EyJI59kNtBmuk4PCt2ao-256" value="" style="html=1;verticalAlign=bottom;endArrow=open;dashed=1;endSize=8;edgeStyle=elbowEdgeStyle;elbow=vertical;curved=0;rounded=0;exitX=0.5;exitY=0;exitDx=0;exitDy=0;entryX=0.502;entryY=1.184;entryDx=0;entryDy=0;entryPerimeter=0;" parent="WIyWlLk6GJQsqaUBKTNV-1" source="EyJI59kNtBmuk4PCt2ao-252" target="EyJI59kNtBmuk4PCt2ao-247" edge="1">
          <mxGeometry x="-0.6828" y="-163" relative="1" as="geometry">
            <mxPoint x="110" y="1242" as="sourcePoint" />
            <mxPoint x="209" y="1173" as="targetPoint" />
            <mxPoint x="160" y="133" as="offset" />
            <Array as="points">
              <mxPoint x="250" y="1182" />
            </Array>
          </mxGeometry>
        </mxCell>
        <mxCell id="EyJI59kNtBmuk4PCt2ao-257" value="" style="endArrow=diamondThin;endFill=1;endSize=24;html=1;rounded=0;entryX=0.625;entryY=1.154;entryDx=0;entryDy=0;exitX=0.25;exitY=0;exitDx=0;exitDy=0;entryPerimeter=0;" parent="WIyWlLk6GJQsqaUBKTNV-1" source="EyJI59kNtBmuk4PCt2ao-252" target="EyJI59kNtBmuk4PCt2ao-247" edge="1">
          <mxGeometry width="160" relative="1" as="geometry">
            <mxPoint x="620" y="1272" as="sourcePoint" />
            <mxPoint x="380" y="1192" as="targetPoint" />
            <Array as="points">
              <mxPoint x="260" y="1202" />
              <mxPoint x="220" y="1202" />
            </Array>
          </mxGeometry>
        </mxCell>
        <mxCell id="EyJI59kNtBmuk4PCt2ao-258" value="" style="endArrow=diamondThin;endFill=1;endSize=24;html=1;rounded=0;entryX=0.625;entryY=1.154;entryDx=0;entryDy=0;exitX=0.75;exitY=0;exitDx=0;exitDy=0;entryPerimeter=0;" parent="WIyWlLk6GJQsqaUBKTNV-1" source="EyJI59kNtBmuk4PCt2ao-236" target="EyJI59kNtBmuk4PCt2ao-247" edge="1">
          <mxGeometry width="160" relative="1" as="geometry">
            <mxPoint x="270" y="1242" as="sourcePoint" />
            <mxPoint x="230" y="1172" as="targetPoint" />
            <Array as="points">
              <mxPoint x="140" y="1202" />
              <mxPoint x="220" y="1202" />
            </Array>
          </mxGeometry>
        </mxCell>
        <mxCell id="EyJI59kNtBmuk4PCt2ao-259" value="return Listeners" style="html=1;verticalAlign=bottom;endArrow=open;dashed=1;endSize=8;edgeStyle=elbowEdgeStyle;elbow=vertical;curved=0;rounded=0;exitX=0.75;exitY=0;exitDx=0;exitDy=0;entryX=0.502;entryY=1.056;entryDx=0;entryDy=0;entryPerimeter=0;" parent="WIyWlLk6GJQsqaUBKTNV-1" target="EyJI59kNtBmuk4PCt2ao-247" edge="1">
          <mxGeometry x="-0.5986" y="30" relative="1" as="geometry">
            <mxPoint x="99.5" y="1238" as="sourcePoint" />
            <mxPoint x="99.5" y="1158" as="targetPoint" />
            <mxPoint x="1" as="offset" />
            <Array as="points">
              <mxPoint x="150" y="1182" />
            </Array>
          </mxGeometry>
        </mxCell>
        <mxCell id="EyJI59kNtBmuk4PCt2ao-262" value="" style="endArrow=block;startArrow=block;endFill=1;startFill=1;html=1;rounded=0;exitX=1;exitY=0.5;exitDx=0;exitDy=0;entryX=0;entryY=0.5;entryDx=0;entryDy=0;" parent="WIyWlLk6GJQsqaUBKTNV-1" source="EyJI59kNtBmuk4PCt2ao-245" target="EyJI59kNtBmuk4PCt2ao-241" edge="1">
          <mxGeometry width="160" relative="1" as="geometry">
            <mxPoint x="360" y="1185" as="sourcePoint" />
            <mxPoint x="520" y="1185" as="targetPoint" />
          </mxGeometry>
        </mxCell>
        <mxCell id="EyJI59kNtBmuk4PCt2ao-263" value="" style="endArrow=diamondThin;endFill=0;endSize=24;html=1;rounded=0;exitX=0.5;exitY=0;exitDx=0;exitDy=0;entryX=0.44;entryY=1.142;entryDx=0;entryDy=0;entryPerimeter=0;" parent="WIyWlLk6GJQsqaUBKTNV-1" source="EyJI59kNtBmuk4PCt2ao-244" target="EyJI59kNtBmuk4PCt2ao-232" edge="1">
          <mxGeometry width="160" relative="1" as="geometry">
            <mxPoint x="-60" y="1045" as="sourcePoint" />
            <mxPoint x="100" y="1045" as="targetPoint" />
          </mxGeometry>
        </mxCell>
        <mxCell id="EyJI59kNtBmuk4PCt2ao-264" value="" style="endArrow=diamondThin;endFill=0;endSize=24;html=1;rounded=0;exitX=0.5;exitY=0;exitDx=0;exitDy=0;" parent="WIyWlLk6GJQsqaUBKTNV-1" source="EyJI59kNtBmuk4PCt2ao-240" edge="1">
          <mxGeometry width="160" relative="1" as="geometry">
            <mxPoint x="480" y="1035" as="sourcePoint" />
            <mxPoint x="200" y="995" as="targetPoint" />
            <Array as="points">
              <mxPoint x="440" y="1035" />
              <mxPoint x="200" y="1035" />
            </Array>
          </mxGeometry>
        </mxCell>
        <mxCell id="EyJI59kNtBmuk4PCt2ao-265" value="" style="endArrow=diamondThin;endFill=0;endSize=24;html=1;rounded=0;exitX=1;exitY=0;exitDx=0;exitDy=0;entryX=0.495;entryY=1.043;entryDx=0;entryDy=0;entryPerimeter=0;" parent="WIyWlLk6GJQsqaUBKTNV-1" source="EyJI59kNtBmuk4PCt2ao-236" target="EyJI59kNtBmuk4PCt2ao-243" edge="1">
          <mxGeometry width="160" relative="1" as="geometry">
            <mxPoint x="110" y="1435" as="sourcePoint" />
            <mxPoint x="460" y="1415" as="targetPoint" />
            <Array as="points">
              <mxPoint x="180" y="1215" />
              <mxPoint x="290" y="1215" />
              <mxPoint x="440" y="1215" />
            </Array>
          </mxGeometry>
        </mxCell>
        <mxCell id="EyJI59kNtBmuk4PCt2ao-269" value="" style="endArrow=block;dashed=1;endFill=0;endSize=12;html=1;rounded=0;exitX=0.5;exitY=0;exitDx=0;exitDy=0;entryX=0.495;entryY=1.026;entryDx=0;entryDy=0;entryPerimeter=0;" parent="WIyWlLk6GJQsqaUBKTNV-1" target="EyJI59kNtBmuk4PCt2ao-20" edge="1">
          <mxGeometry width="160" relative="1" as="geometry">
            <mxPoint x="680" y="411" as="sourcePoint" />
            <mxPoint x="670" y="880" as="targetPoint" />
          </mxGeometry>
        </mxCell>
        <mxCell id="EyJI59kNtBmuk4PCt2ao-270" value="Dashboard" style="swimlane;fontStyle=1;align=center;verticalAlign=top;childLayout=stackLayout;horizontal=1;startSize=26;horizontalStack=0;resizeParent=1;resizeParentMax=0;resizeLast=0;collapsible=1;marginBottom=0;whiteSpace=wrap;html=1;" parent="WIyWlLk6GJQsqaUBKTNV-1" vertex="1">
          <mxGeometry x="600" y="410" width="160" height="112" as="geometry" />
        </mxCell>
        <mxCell id="EyJI59kNtBmuk4PCt2ao-271" value="+currentRobot" style="text;strokeColor=none;fillColor=none;align=left;verticalAlign=top;spacingLeft=4;spacingRight=4;overflow=hidden;rotatable=0;points=[[0,0.5],[1,0.5]];portConstraint=eastwest;whiteSpace=wrap;html=1;" parent="EyJI59kNtBmuk4PCt2ao-270" vertex="1">
          <mxGeometry y="26" width="160" height="26" as="geometry" />
        </mxCell>
        <mxCell id="EyJI59kNtBmuk4PCt2ao-274" value="- listeners: Listener[]" style="text;strokeColor=none;fillColor=none;align=left;verticalAlign=top;spacingLeft=4;spacingRight=4;overflow=hidden;rotatable=0;points=[[0,0.5],[1,0.5]];portConstraint=eastwest;whiteSpace=wrap;html=1;" parent="EyJI59kNtBmuk4PCt2ao-270" vertex="1">
          <mxGeometry y="52" width="160" height="26" as="geometry" />
        </mxCell>
        <mxCell id="EyJI59kNtBmuk4PCt2ao-272" value="" style="line;strokeWidth=1;fillColor=none;align=left;verticalAlign=middle;spacingTop=-1;spacingLeft=3;spacingRight=3;rotatable=0;labelPosition=right;points=[];portConstraint=eastwest;strokeColor=inherit;" parent="EyJI59kNtBmuk4PCt2ao-270" vertex="1">
          <mxGeometry y="78" width="160" height="8" as="geometry" />
        </mxCell>
        <mxCell id="EyJI59kNtBmuk4PCt2ao-273" value="+ method(type): type" style="text;strokeColor=none;fillColor=none;align=left;verticalAlign=top;spacingLeft=4;spacingRight=4;overflow=hidden;rotatable=0;points=[[0,0.5],[1,0.5]];portConstraint=eastwest;whiteSpace=wrap;html=1;" parent="EyJI59kNtBmuk4PCt2ao-270" vertex="1">
          <mxGeometry y="86" width="160" height="26" as="geometry" />
        </mxCell>
        <mxCell id="EyJI59kNtBmuk4PCt2ao-289" value="SubSocket" style="swimlane;fontStyle=1;align=center;verticalAlign=top;childLayout=stackLayout;horizontal=1;startSize=26;horizontalStack=0;resizeParent=1;resizeParentMax=0;resizeLast=0;collapsible=1;marginBottom=0;whiteSpace=wrap;html=1;" parent="WIyWlLk6GJQsqaUBKTNV-1" vertex="1">
          <mxGeometry x="-25" y="-170" width="220" height="190" as="geometry" />
        </mxCell>
        <mxCell id="EyJI59kNtBmuk4PCt2ao-290" value="- data: Any" style="text;strokeColor=none;fillColor=none;align=left;verticalAlign=top;spacingLeft=4;spacingRight=4;overflow=hidden;rotatable=0;points=[[0,0.5],[1,0.5]];portConstraint=eastwest;whiteSpace=wrap;html=1;" parent="EyJI59kNtBmuk4PCt2ao-289" vertex="1">
          <mxGeometry y="26" width="220" height="26" as="geometry" />
        </mxCell>
        <mxCell id="EyJI59kNtBmuk4PCt2ao-291" value="- listeners: Listener[]" style="text;strokeColor=none;fillColor=none;align=left;verticalAlign=top;spacingLeft=4;spacingRight=4;overflow=hidden;rotatable=0;points=[[0,0.5],[1,0.5]];portConstraint=eastwest;whiteSpace=wrap;html=1;" parent="EyJI59kNtBmuk4PCt2ao-289" vertex="1">
          <mxGeometry y="52" width="220" height="26" as="geometry" />
        </mxCell>
        <mxCell id="EyJI59kNtBmuk4PCt2ao-292" value="- socket: io" style="text;strokeColor=none;fillColor=none;align=left;verticalAlign=top;spacingLeft=4;spacingRight=4;overflow=hidden;rotatable=0;points=[[0,0.5],[1,0.5]];portConstraint=eastwest;whiteSpace=wrap;html=1;" parent="EyJI59kNtBmuk4PCt2ao-289" vertex="1">
          <mxGeometry y="78" width="220" height="26" as="geometry" />
        </mxCell>
        <mxCell id="EyJI59kNtBmuk4PCt2ao-293" value="- name: string" style="text;strokeColor=none;fillColor=none;align=left;verticalAlign=top;spacingLeft=4;spacingRight=4;overflow=hidden;rotatable=0;points=[[0,0.5],[1,0.5]];portConstraint=eastwest;whiteSpace=wrap;html=1;" parent="EyJI59kNtBmuk4PCt2ao-289" vertex="1">
          <mxGeometry y="104" width="220" height="26" as="geometry" />
        </mxCell>
        <mxCell id="EyJI59kNtBmuk4PCt2ao-294" value="-deleteDataTimeout: Timeout" style="text;strokeColor=none;fillColor=none;align=left;verticalAlign=top;spacingLeft=4;spacingRight=4;overflow=hidden;rotatable=0;points=[[0,0.5],[1,0.5]];portConstraint=eastwest;whiteSpace=wrap;html=1;" parent="EyJI59kNtBmuk4PCt2ao-289" vertex="1">
          <mxGeometry y="130" width="220" height="26" as="geometry" />
        </mxCell>
        <mxCell id="EyJI59kNtBmuk4PCt2ao-295" value="-init: fetchUrl, body" style="text;strokeColor=none;fillColor=none;align=left;verticalAlign=top;spacingLeft=4;spacingRight=4;overflow=hidden;rotatable=0;points=[[0,0.5],[1,0.5]];portConstraint=eastwest;whiteSpace=wrap;html=1;" parent="EyJI59kNtBmuk4PCt2ao-289" vertex="1">
          <mxGeometry y="156" width="220" height="26" as="geometry" />
        </mxCell>
        <mxCell id="EyJI59kNtBmuk4PCt2ao-296" value="" style="line;strokeWidth=1;fillColor=none;align=left;verticalAlign=middle;spacingTop=-1;spacingLeft=3;spacingRight=3;rotatable=0;labelPosition=right;points=[];portConstraint=eastwest;strokeColor=inherit;" parent="EyJI59kNtBmuk4PCt2ao-289" vertex="1">
          <mxGeometry y="182" width="220" height="8" as="geometry" />
        </mxCell>
        <mxCell id="EyJI59kNtBmuk4PCt2ao-298" value="" style="endArrow=diamondThin;endFill=1;endSize=24;html=1;rounded=0;exitX=0.5;exitY=0;exitDx=0;exitDy=0;entryX=0.442;entryY=1.062;entryDx=0;entryDy=0;entryPerimeter=0;" parent="WIyWlLk6GJQsqaUBKTNV-1" source="EyJI59kNtBmuk4PCt2ao-94" target="EyJI59kNtBmuk4PCt2ao-296" edge="1">
          <mxGeometry width="160" relative="1" as="geometry">
            <mxPoint x="-130" y="110" as="sourcePoint" />
            <mxPoint x="84.11999999999989" y="48.470000000000255" as="targetPoint" />
          </mxGeometry>
        </mxCell>
        <mxCell id="EyJI59kNtBmuk4PCt2ao-306" value="" style="endArrow=open;startArrow=circlePlus;endFill=0;startFill=0;endSize=8;html=1;rounded=0;entryX=0;entryY=0.5;entryDx=0;entryDy=0;" parent="WIyWlLk6GJQsqaUBKTNV-1" target="EyJI59kNtBmuk4PCt2ao-312" edge="1">
          <mxGeometry width="160" relative="1" as="geometry">
            <mxPoint x="200" y="260" as="sourcePoint" />
            <mxPoint x="280" y="260" as="targetPoint" />
          </mxGeometry>
        </mxCell>
        <mxCell id="EyJI59kNtBmuk4PCt2ao-307" value="Listener" style="swimlane;fontStyle=1;align=center;verticalAlign=top;childLayout=stackLayout;horizontal=1;startSize=26;horizontalStack=0;resizeParent=1;resizeParentMax=0;resizeLast=0;collapsible=1;marginBottom=0;whiteSpace=wrap;html=1;" parent="WIyWlLk6GJQsqaUBKTNV-1" vertex="1">
          <mxGeometry x="300" y="200" width="190" height="190" as="geometry" />
        </mxCell>
        <mxCell id="EyJI59kNtBmuk4PCt2ao-308" value="-event:string" style="text;strokeColor=none;fillColor=none;align=left;verticalAlign=top;spacingLeft=4;spacingRight=4;overflow=hidden;rotatable=0;points=[[0,0.5],[1,0.5]];portConstraint=eastwest;whiteSpace=wrap;html=1;" parent="EyJI59kNtBmuk4PCt2ao-307" vertex="1">
          <mxGeometry y="26" width="190" height="26" as="geometry" />
        </mxCell>
        <mxCell id="EyJI59kNtBmuk4PCt2ao-312" value="- callback&lt;br&gt;" style="text;strokeColor=none;fillColor=none;align=left;verticalAlign=top;spacingLeft=4;spacingRight=4;overflow=hidden;rotatable=0;points=[[0,0.5],[1,0.5]];portConstraint=eastwest;whiteSpace=wrap;html=1;" parent="EyJI59kNtBmuk4PCt2ao-307" vertex="1">
          <mxGeometry y="52" width="190" height="26" as="geometry" />
        </mxCell>
        <mxCell id="EyJI59kNtBmuk4PCt2ao-326" value="+isOn" style="text;strokeColor=none;fillColor=none;align=left;verticalAlign=top;spacingLeft=4;spacingRight=4;overflow=hidden;rotatable=0;points=[[0,0.5],[1,0.5]];portConstraint=eastwest;whiteSpace=wrap;html=1;" parent="EyJI59kNtBmuk4PCt2ao-307" vertex="1">
          <mxGeometry y="78" width="190" height="26" as="geometry" />
        </mxCell>
        <mxCell id="EyJI59kNtBmuk4PCt2ao-311" value="-criteria: Any" style="text;strokeColor=none;fillColor=none;align=left;verticalAlign=top;spacingLeft=4;spacingRight=4;overflow=hidden;rotatable=0;points=[[0,0.5],[1,0.5]];portConstraint=eastwest;whiteSpace=wrap;html=1;" parent="EyJI59kNtBmuk4PCt2ao-307" vertex="1">
          <mxGeometry y="104" width="190" height="26" as="geometry" />
        </mxCell>
        <mxCell id="EyJI59kNtBmuk4PCt2ao-309" value="" style="line;strokeWidth=1;fillColor=none;align=left;verticalAlign=middle;spacingTop=-1;spacingLeft=3;spacingRight=3;rotatable=0;labelPosition=right;points=[];portConstraint=eastwest;strokeColor=inherit;" parent="EyJI59kNtBmuk4PCt2ao-307" vertex="1">
          <mxGeometry y="130" width="190" height="8" as="geometry" />
        </mxCell>
        <mxCell id="EyJI59kNtBmuk4PCt2ao-310" value="+ checkCriteria (...args): boolean&amp;nbsp;" style="text;strokeColor=none;fillColor=none;align=left;verticalAlign=top;spacingLeft=4;spacingRight=4;overflow=hidden;rotatable=0;points=[[0,0.5],[1,0.5]];portConstraint=eastwest;whiteSpace=wrap;html=1;" parent="EyJI59kNtBmuk4PCt2ao-307" vertex="1">
          <mxGeometry y="138" width="190" height="26" as="geometry" />
        </mxCell>
        <mxCell id="EyJI59kNtBmuk4PCt2ao-313" value="+ onUpdate (data): void" style="text;strokeColor=none;fillColor=none;align=left;verticalAlign=top;spacingLeft=4;spacingRight=4;overflow=hidden;rotatable=0;points=[[0,0.5],[1,0.5]];portConstraint=eastwest;whiteSpace=wrap;html=1;" parent="EyJI59kNtBmuk4PCt2ao-307" vertex="1">
          <mxGeometry y="164" width="190" height="26" as="geometry" />
        </mxCell>
        <mxCell id="EyJI59kNtBmuk4PCt2ao-315" value="dispatch" style="html=1;verticalAlign=bottom;endArrow=block;edgeStyle=elbowEdgeStyle;elbow=vertical;curved=0;rounded=0;exitX=1;exitY=0.5;exitDx=0;exitDy=0;entryX=0;entryY=0.5;entryDx=0;entryDy=0;" parent="WIyWlLk6GJQsqaUBKTNV-1" source="EyJI59kNtBmuk4PCt2ao-45" target="EyJI59kNtBmuk4PCt2ao-97" edge="1">
          <mxGeometry x="-0.2398" y="-5" width="80" relative="1" as="geometry">
            <mxPoint x="-250" y="440" as="sourcePoint" />
            <mxPoint x="-170" y="440" as="targetPoint" />
            <mxPoint as="offset" />
          </mxGeometry>
        </mxCell>
        <mxCell id="EyJI59kNtBmuk4PCt2ao-322" style="edgeStyle=orthogonalEdgeStyle;rounded=0;orthogonalLoop=1;jettySize=auto;html=1;entryX=-0.007;entryY=0.847;entryDx=0;entryDy=0;entryPerimeter=0;" parent="WIyWlLk6GJQsqaUBKTNV-1" source="EyJI59kNtBmuk4PCt2ao-320" target="EyJI59kNtBmuk4PCt2ao-108" edge="1">
          <mxGeometry relative="1" as="geometry" />
        </mxCell>
        <mxCell id="EyJI59kNtBmuk4PCt2ao-332" value="TBA Interval" style="html=1;whiteSpace=wrap;" parent="WIyWlLk6GJQsqaUBKTNV-1" vertex="1">
          <mxGeometry x="-1199" y="174" width="110" height="50" as="geometry" />
        </mxCell>
        <mxCell id="EyJI59kNtBmuk4PCt2ao-333" value="dispatch" style="html=1;verticalAlign=bottom;endArrow=block;edgeStyle=elbowEdgeStyle;elbow=vertical;curved=0;rounded=0;exitX=1;exitY=0.5;exitDx=0;exitDy=0;entryX=0;entryY=0.5;entryDx=0;entryDy=0;" parent="WIyWlLk6GJQsqaUBKTNV-1" source="EyJI59kNtBmuk4PCt2ao-332" target="EyJI59kNtBmuk4PCt2ao-320" edge="1">
          <mxGeometry x="0.2878" y="7" width="80" relative="1" as="geometry">
            <mxPoint x="-1060" y="370" as="sourcePoint" />
            <mxPoint x="-910" y="130" as="targetPoint" />
            <mxPoint as="offset" />
            <Array as="points">
              <mxPoint x="-790" y="200" />
            </Array>
          </mxGeometry>
        </mxCell>
        <mxCell id="EyJI59kNtBmuk4PCt2ao-342" style="edgeStyle=orthogonalEdgeStyle;rounded=0;orthogonalLoop=1;jettySize=auto;html=1;entryX=0;entryY=0.5;entryDx=0;entryDy=0;" parent="WIyWlLk6GJQsqaUBKTNV-1" source="EyJI59kNtBmuk4PCt2ao-341" target="EyJI59kNtBmuk4PCt2ao-320" edge="1">
          <mxGeometry relative="1" as="geometry">
            <Array as="points">
              <mxPoint x="-1020" y="335" />
              <mxPoint x="-1020" y="205" />
            </Array>
          </mxGeometry>
        </mxCell>
        <mxCell id="EyJI59kNtBmuk4PCt2ao-341" value="EventServer" style="html=1;whiteSpace=wrap;" parent="WIyWlLk6GJQsqaUBKTNV-1" vertex="1">
          <mxGeometry x="-1190" y="283" width="110" height="50" as="geometry" />
        </mxCell>
        <mxCell id="pfRynWjS_9kP5OW-bGrS-2" style="edgeStyle=orthogonalEdgeStyle;rounded=0;orthogonalLoop=1;jettySize=auto;html=1;exitX=1;exitY=0.5;exitDx=0;exitDy=0;" parent="WIyWlLk6GJQsqaUBKTNV-1" source="EyJI59kNtBmuk4PCt2ao-343" edge="1">
          <mxGeometry relative="1" as="geometry">
            <mxPoint x="-790" y="210.00000000000023" as="targetPoint" />
            <Array as="points">
              <mxPoint x="-1010" y="125" />
              <mxPoint x="-1010" y="210" />
            </Array>
          </mxGeometry>
        </mxCell>
        <mxCell id="EyJI59kNtBmuk4PCt2ao-343" value="Discord Bot" style="html=1;whiteSpace=wrap;" parent="WIyWlLk6GJQsqaUBKTNV-1" vertex="1">
          <mxGeometry x="-1199" y="100" width="110" height="50" as="geometry" />
        </mxCell>
        <mxCell id="pfRynWjS_9kP5OW-bGrS-3" style="edgeStyle=orthogonalEdgeStyle;rounded=0;orthogonalLoop=1;jettySize=auto;html=1;exitX=0;exitY=0.5;exitDx=0;exitDy=0;entryX=1.022;entryY=0.212;entryDx=0;entryDy=0;entryPerimeter=0;" parent="WIyWlLk6GJQsqaUBKTNV-1" source="EyJI59kNtBmuk4PCt2ao-295" target="EyJI59kNtBmuk4PCt2ao-29" edge="1">
          <mxGeometry relative="1" as="geometry">
            <Array as="points">
              <mxPoint x="-70" y="-1" />
              <mxPoint x="-70" y="140" />
              <mxPoint x="-410" y="140" />
              <mxPoint x="-410" y="276" />
            </Array>
          </mxGeometry>
        </mxCell>
        <mxCell id="EyJI59kNtBmuk4PCt2ao-154" value="FIRSTYear" style="swimlane;fontStyle=1;align=center;verticalAlign=top;childLayout=stackLayout;horizontal=1;startSize=26;horizontalStack=0;resizeParent=1;resizeParentMax=0;resizeLast=0;collapsible=1;marginBottom=0;whiteSpace=wrap;html=1;" parent="WIyWlLk6GJQsqaUBKTNV-1" vertex="1">
          <mxGeometry x="-945" y="490" width="250" height="164" as="geometry" />
        </mxCell>
        <mxCell id="EyJI59kNtBmuk4PCt2ao-155" value="-#listeners" style="text;strokeColor=none;fillColor=none;align=left;verticalAlign=top;spacingLeft=4;spacingRight=4;overflow=hidden;rotatable=0;points=[[0,0.5],[1,0.5]];portConstraint=eastwest;whiteSpace=wrap;html=1;" parent="EyJI59kNtBmuk4PCt2ao-154" vertex="1">
          <mxGeometry y="26" width="250" height="26" as="geometry" />
        </mxCell>
        <mxCell id="EyJI59kNtBmuk4PCt2ao-348" value="+events: FIRSTEvent[]" style="text;strokeColor=none;fillColor=none;align=left;verticalAlign=top;spacingLeft=4;spacingRight=4;overflow=hidden;rotatable=0;points=[[0,0.5],[1,0.5]];portConstraint=eastwest;whiteSpace=wrap;html=1;" parent="EyJI59kNtBmuk4PCt2ao-154" vertex="1">
          <mxGeometry y="52" width="250" height="26" as="geometry" />
        </mxCell>
        <mxCell id="EyJI59kNtBmuk4PCt2ao-349" value="+content: Object" style="text;strokeColor=none;fillColor=none;align=left;verticalAlign=top;spacingLeft=4;spacingRight=4;overflow=hidden;rotatable=0;points=[[0,0.5],[1,0.5]];portConstraint=eastwest;whiteSpace=wrap;html=1;" parent="EyJI59kNtBmuk4PCt2ao-154" vertex="1">
          <mxGeometry y="78" width="250" height="26" as="geometry" />
        </mxCell>
        <mxCell id="EyJI59kNtBmuk4PCt2ao-156" value="" style="line;strokeWidth=1;fillColor=none;align=left;verticalAlign=middle;spacingTop=-1;spacingLeft=3;spacingRight=3;rotatable=0;labelPosition=right;points=[];portConstraint=eastwest;strokeColor=inherit;" parent="EyJI59kNtBmuk4PCt2ao-154" vertex="1">
          <mxGeometry y="104" width="250" height="8" as="geometry" />
        </mxCell>
        <mxCell id="EyJI59kNtBmuk4PCt2ao-157" value="+get listeners" style="text;strokeColor=none;fillColor=none;align=left;verticalAlign=top;spacingLeft=4;spacingRight=4;overflow=hidden;rotatable=0;points=[[0,0.5],[1,0.5]];portConstraint=eastwest;whiteSpace=wrap;html=1;" parent="EyJI59kNtBmuk4PCt2ao-154" vertex="1">
          <mxGeometry y="112" width="250" height="26" as="geometry" />
        </mxCell>
        <mxCell id="EyJI59kNtBmuk4PCt2ao-358" value="+getData(criteria): Any" style="text;strokeColor=none;fillColor=none;align=left;verticalAlign=top;spacingLeft=4;spacingRight=4;overflow=hidden;rotatable=0;points=[[0,0.5],[1,0.5]];portConstraint=eastwest;whiteSpace=wrap;html=1;" parent="EyJI59kNtBmuk4PCt2ao-154" vertex="1">
          <mxGeometry y="138" width="250" height="26" as="geometry" />
        </mxCell>
        <mxCell id="EyJI59kNtBmuk4PCt2ao-366" value="" style="endArrow=diamondThin;endFill=1;endSize=24;html=1;rounded=0;exitX=0.5;exitY=0;exitDx=0;exitDy=0;entryX=0.515;entryY=1.164;entryDx=0;entryDy=0;entryPerimeter=0;" parent="WIyWlLk6GJQsqaUBKTNV-1" source="EyJI59kNtBmuk4PCt2ao-162" target="EyJI59kNtBmuk4PCt2ao-358" edge="1">
          <mxGeometry width="160" relative="1" as="geometry">
            <mxPoint x="-570" y="850" as="sourcePoint" />
            <mxPoint x="-410" y="850" as="targetPoint" />
          </mxGeometry>
        </mxCell>
        <mxCell id="EyJI59kNtBmuk4PCt2ao-368" style="edgeStyle=orthogonalEdgeStyle;rounded=0;orthogonalLoop=1;jettySize=auto;html=1;entryX=1;entryY=0.5;entryDx=0;entryDy=0;" parent="WIyWlLk6GJQsqaUBKTNV-1" source="EyJI59kNtBmuk4PCt2ao-109" target="EyJI59kNtBmuk4PCt2ao-320" edge="1">
          <mxGeometry relative="1" as="geometry">
            <Array as="points">
              <mxPoint x="-500" y="367" />
              <mxPoint x="-500" y="205" />
            </Array>
          </mxGeometry>
        </mxCell>
        <mxCell id="EyJI59kNtBmuk4PCt2ao-369" value="dispatch" style="html=1;verticalAlign=bottom;endArrow=block;edgeStyle=elbowEdgeStyle;elbow=vertical;curved=0;rounded=0;exitX=1;exitY=0.5;exitDx=0;exitDy=0;entryX=0;entryY=0.5;entryDx=0;entryDy=0;" parent="WIyWlLk6GJQsqaUBKTNV-1" source="EyJI59kNtBmuk4PCt2ao-97" target="EyJI59kNtBmuk4PCt2ao-313" edge="1">
          <mxGeometry width="80" relative="1" as="geometry">
            <mxPoint x="260" y="450.12" as="sourcePoint" />
            <mxPoint x="340" y="450.12" as="targetPoint" />
          </mxGeometry>
        </mxCell>
      </root>
    </mxGraphModel>
  </diagram>
</mxfile>
